<?xml version="1.0" encoding="UTF-8"?>
<svg id="Capa_1" xmlns="http://www.w3.org/2000/svg" version="1.1" viewBox="0 0 250 250">
  <!-- Generator: Adobe Illustrator 29.8.1, SVG Export Plug-In . SVG Version: 2.1.1 Build 2)  -->
  <defs>
    <style>
      .st0 {
        fill: #d4ac6b;
        fill-rule: evenodd;
      }
    </style>
  </defs>
  <path id="Trazado_325" class="st0" d="M150,29.6l28.9,28.9h-28.9v-28.9ZM66.1,26.9v65.2l2.3.7c5.4,1.7,8.3,7.5,6.6,12.9h0l-1.4,4.2c3.2,1.2,6.7,1.5,10,.9,9.2-6,17.8-8.4,25.4-7.3h.4c5.5,1.5,10.9,3.4,16.1,5.7.3,0,.5.3.7.4,4.4-1.8,8.8-3.3,13.4-4.5h.4c7.6-1.2,16.1,1.3,25.4,7.3,3.8.7,7.8.2,11.3-1.3l-1.7-5.3c-1.7-5.4,1.2-11.1,6.5-12.9l2.3-.7v-26.5h-37.4c-1.9,0-3.5-1.6-3.5-3.5V24.6h-74.5c-1.3,0-2.3,1-2.3,2.3h0ZM141.3,112.1c5.9-.8,12.9,1.4,20.7,6.5.3.2.6.3.9.4,5.3,1.3,10.9.9,16-1.2l14.4,44.4c-.7-.7-1.4-1.2-2.2-1.8-14.4-10.9-30.7-19-48.1-23.9-.7-.2-1.4-.2-2.1,0l-36.9,12.2c-3.5,1.2-6.5.2-10.3-8,12.8-13.9,29.3-23.8,47.5-28.7h.1ZM44.7,165.9l-23.3-7.6c-.8-.3-1.5-.8-1.9-1.6s-.5-1.6-.2-2.4l19.5-60.3c.4-1.3,1.7-2.2,3-2.2s.7,0,1,.2l23.3,7.6c1.7.5,2.6,2.3,2.1,4h0l-19.5,60.3c-.5,1.7-2.3,2.6-4,2.1h0ZM53.2,200.3c-1.3-.9-2.2-2.2-2.5-3.8-.3-1.5,0-3.1.9-4.4l5.3-7.8c.9-1.3,2.2-2.2,3.8-2.5.4,0,.8-.1,1.2-.1,1.2,0,2.3.3,3.2,1,1.3.9,2.2,2.2,2.5,3.8.3,1.5,0,3.1-.9,4.4l-2.6,3.9h0l-2.6,3.9c-1.8,2.7-5.5,3.4-8.2,1.6h0ZM70.7,215.6c1.5-.3,2.9-1.2,3.8-2.5l5.3-7.8c1.8-2.7,1.1-6.4-1.6-8.2-1-.7-2.1-1-3.3-1s-.8,0-1.2.1c-1.5.3-2.9,1.2-3.8,2.5l-2.6,3.9h0l-2.6,3.9c-1.8,2.7-1.1,6.4,1.6,8.2,1.3.9,2.9,1.2,4.4.9h0ZM87.2,219.5c-1.3-.9-2.2-2.2-2.5-3.8-.3-1.5,0-3.1.9-4.4l5.3-7.8c1.8-2.7,5.4-3.5,8.2-1.7,2.7,1.8,3.5,5.4,1.7,8.2,0,0,0,.1,0,.2l-5.3,7.8c-1.8,2.7-5.5,3.4-8.2,1.6h0ZM110.5,222.5c-2.3.4-4.5-1-4.9-3.3-.2-1.1,0-2.2.6-3.1l4.3-6.4c1.3-1.9,3.9-2.5,5.8-1.2.9.6,1.6,1.6,1.8,2.7.2,1.1,0,2.2-.6,3.2l-4.3,6.4c-.6.9-1.6,1.6-2.7,1.8h0ZM190.4,176.1c-1.9,3.5-6.2,4.8-9.7,3l-7.9-4.2-18.8-10c-1.7-.9-3.9-.3-4.8,1.5-.9,1.7-.3,3.9,1.5,4.8l7.9,4.2,11,5.8c3.5,1.9,4.8,6.2,3,9.7-1.9,3.5-6.2,4.8-9.7,3h0l-7-3.7-11.8-6.3c-1.7-.9-3.9-.3-4.8,1.5-.9,1.7-.3,3.9,1.5,4.8l11.9,6.3c3.5,1.9,4.8,6.2,3,9.7-1.9,3.5-6.2,4.8-9.7,3l-17.2-9.2c-1.7-.9-3.9-.3-4.8,1.5-.9,1.7-.3,3.9,1.5,4.8l11.7,6.2c2.6,1.4,3.6,4.7,2.2,7.3-1.4,2.6-4.7,3.6-7.3,2.2l-8-4.2c3-5.5,1-12.3-4.5-15.3-3.6-2-7.9-1.8-11.4.4-.9-2.6-2.7-4.9-5-6.5-5-3.3-11.7-2.8-16.1,1.3-2-5-6.8-8.3-12.3-8.3.8-7.1-4.3-13.5-11.4-14.4-1.5-.2-3,0-4.4.2,0-.1-.2-.2-.4-.3-2.1-1.3-3.7-3.2-4.7-5.5.7-.9,1.3-2,1.6-3.1l16-49.4c3,1,6.1,1.5,9.2,1.6,1.9,0,3.7-.2,5.5-.8.3,0,.6-.2.9-.4,7.8-5.2,14.8-7.4,20.7-6.5,3.4.9,6.7,2,9.9,3.2-11.6,6.1-22.1,14.2-30.7,24-.9,1-1.1,2.5-.6,3.7,1.8,4.3,6.2,14.8,15.4,14.7,1.5,0,3.1-.3,4.5-.8l35.8-11.8c16.3,4.7,31.5,12.3,45,22.6,3.5,2,4.9,6.2,3.3,9.9h0v-.2ZM230.5,156.8c-.4.8-1,1.3-1.9,1.6l-23.3,7.6c-1.7.5-3.5-.4-4-2.1l-19.5-60.3c-.5-1.7.4-3.5,2.1-4h0l23.3-7.6c.3,0,.6-.2,1-.2,1.4,0,2.6.9,3,2.2l19.5,60.3c.3.8.2,1.7-.2,2.4h0ZM53.1,106.1c0,2,1.6,3.5,3.5,3.5s3.5-1.6,3.5-3.5-1.6-3.5-3.5-3.5h0c-1.9,0-3.5,1.6-3.5,3.5h0ZM196.7,105.6c0-1.9-1.6-3.5-3.5-3.5h0c-1.9,0-3.5,1.6-3.5,3.6s1.6,3.5,3.6,3.5,3.5-1.6,3.5-3.5h-.1ZM110.4,81.8c0,3.3,1.9,6.3,4.9,7.6v-16.5c-8.3-1.9-13.5-10.3-11.5-18.6,1.3-5.7,5.8-10.2,11.5-11.5v-1.7c0-1.9,1.6-3.5,3.5-3.5s3.5,1.6,3.5,3.5v1.7c7,1.6,11.9,7.9,11.9,15.1s-1.6,3.5-3.5,3.5-3.5-1.6-3.5-3.5c0-3.3-1.9-6.3-4.9-7.6v16.5c8.3,1.9,13.5,10.3,11.5,18.6-1.3,5.7-5.8,10.2-11.5,11.5v1.7c0,1.9-1.6,3.5-3.5,3.5s-3.5-1.6-3.5-3.5v-1.7c-7-1.6-11.9-7.9-11.9-15.1s1.6-3.5,3.5-3.5,3.5,1.6,3.5,3.5h0ZM127.2,81.8c0,3.3-1.9,6.3-4.9,7.6v-15.3c3,1.4,4.9,4.4,4.9,7.6h0ZM110.4,58c0-3.3,1.9-6.3,4.9-7.6v15.3c-3-1.4-4.9-4.4-4.9-7.6h0Z"/>
</svg>