<?xml version="1.0" encoding="UTF-8"?>
<svg id="Capa_1" xmlns="http://www.w3.org/2000/svg" version="1.1" viewBox="0 0 250 250">
  <!-- Generator: Adobe Illustrator 29.8.1, SVG Export Plug-In . SVG Version: 2.1.1 Build 2)  -->
  <defs>
    <style>
      .st0 {
        fill: #d4ac6b;
      }
    </style>
  </defs>
  <g id="Grupo_225">
    <path id="Trazado_93" class="st0" d="M199.9,188.9h-87c-9.8,0-18.7,6-22.3,15.1l-.8,2v5.4c0,3.8,3.1,7,7,7h119.3c3.8,0,7-3.1,7-7v-5.4c-3.1-10.1-12.5-17.1-23.1-17.1h0Z"/>
    <path id="Trazado_94" class="st0" d="M121.5,163.9c-5.7,0-10.4,4.6-10.4,10.4h0v8.2h90.6v-8.2c0-5.7-4.6-10.4-10.4-10.4h-69.8Z"/>
    <path id="Trazado_95" class="st0" d="M99.3,87.7l34.7-34.8,36.2,36.1-34.7,34.8s-36.2-36.1-36.2-36.1Z"/>
    <path id="Trazado_96" class="st0" d="M91.7,140.5l-8.8-8.8c-2-2-5.4-2-7.4,0l-56,56.2c-2,2-2,5.4,0,7.4l8.8,8.8c2,2,5.4,2,7.4,0l56-56.1c2-2,2.1-5.3,0-7.4h0Z"/>
    <path id="Trazado_97" class="st0" d="M83.9,84.7c2.6,2.6,6.8,2.6,9.5,0l37.5-37.7c2.6-2.6,2.6-6.8,0-9.5l-6.2-6.2c-2.6-2.6-6.8-2.6-9.5,0l-37.5,37.7c-2.6,2.6-2.6,6.8,0,9.5,0,0,6.2,6.2,6.2,6.2Z"/>
    <path id="Trazado_98" class="st0" d="M138.7,139.2l6.2,6.2c2.6,2.6,6.8,2.6,9.5,0l37.5-37.7c2.6-2.6,2.6-6.8,0-9.5l-6.2-6.2c-2.6-2.6-6.8-2.6-9.5,0l-37.5,37.7c-2.6,2.6-2.6,6.8,0,9.4h0Z"/>
    <path id="Trazado_99" class="st0" d="M106.6,104.8l-20.6,21.2c.5.3.9.7,1.4,1.1l8.8,8.8c.4.4.8.9,1.1,1.4l20.6-21.2-11.3-11.3h0Z"/>
  </g>
</svg>