<?xml version="1.0" encoding="UTF-8"?>
<svg id="Capa_1" xmlns="http://www.w3.org/2000/svg" version="1.1" viewBox="0 0 250 250">
  <!-- Generator: Adobe Illustrator 29.8.1, SVG Export Plug-In . SVG Version: 2.1.1 Build 2)  -->
  <defs>
    <style>
      .st0 {
        fill: #d4ac6b;
      }
    </style>
  </defs>
  <path id="Trazado_408" class="st0" d="M225.4,105.5h-9.1c-2.1-8.5-5.5-16.6-10-24.2l6.4-6.4c2.3-2.3,2.3-6.1,0-8.5h0l-22.6-22.6c-2.3-2.3-6.1-2.3-8.5,0h0l-6.4,6.4c-7.5-4.5-15.7-7.9-24.2-10v-9.1c0-3.3-2.7-6-6-6h-32c-3.3,0-6,2.7-6,6h0v9.1c-8.5,2.1-16.6,5.5-24.2,10l-6.4-6.4c-2.3-2.3-6.1-2.3-8.5,0h0l-22.6,22.6c-2.3,2.3-2.3,6.1,0,8.5h0l6.4,6.4c-4.5,7.5-7.9,15.7-10,24.2h-9.1c-3.3,0-6,2.7-6,6v32c0,3.3,2.7,6,6,6h9.1c2.1,8.5,5.5,16.6,10,24.2l-6.4,6.4c-2.3,2.3-2.3,6.1,0,8.5h0l22.6,22.6c2.3,2.3,6.1,2.3,8.5,0h0l6.4-6.4c7.5,4.5,15.7,7.9,24.2,10v9.1c0,3.3,2.7,6,6,6h32c3.3,0,6-2.7,6-6h0v-9.1c8.5-2.1,16.6-5.5,24.2-10l6.4,6.4c2.3,2.3,6.1,2.3,8.5,0h0l22.6-22.6c2.3-2.3,2.3-6.1,0-8.5h0l-6.5-6.4c4.5-7.5,7.9-15.7,10-24.2h9.1c3.3,0,6-2.7,6-6v-32c0-3.3-2.7-6-6-6h.1ZM129,189.5c-34.2,0-62-27.8-62-62s27.8-62,62-62,62,27.8,62,62-27.8,62-62,62Z"/>
  <path id="Trazado_409" class="st0" d="M129,77.5c-27.6,0-50,22.4-50,50s22.4,50,50,50,50-22.4,50-50-22.4-50-50-50ZM158.7,114.8l-33.9,33.9c-2.3,2.3-6.1,2.3-8.5,0l-17-17c-2.3-2.3-2.3-6.1,0-8.5s6.1-2.3,8.5,0l12.7,12.7,29.7-29.7c2.3-2.4,6.1-2.4,8.5,0s2.4,6.1.1,8.5c0,0,0,0-.1,0h0Z"/>
</svg>