<?xml version="1.0" encoding="UTF-8"?>
<svg id="Capa_1" xmlns="http://www.w3.org/2000/svg" version="1.1" viewBox="0 0 250 250">
  <!-- Generator: Adobe Illustrator 29.8.1, SVG Export Plug-In . SVG Version: 2.1.1 Build 2)  -->
  <defs>
    <style>
      .st0 {
        fill: #d4ac6b;
      }
    </style>
  </defs>
  <g id="_26_Accounting_Calculate_Calculator_Finance">
    <path id="Trazado_320" class="st0" d="M85.1,32.4v36.6c0,4-3.3,7.3-7.3,7.3h-43.9c-4,0-7.3-3.3-7.3-7.3s1-4.2,2.6-5.6l43.9-36.6c3.1-2.6,7.7-2.2,10.3.9,1.1,1.3,1.7,3,1.7,4.7h0ZM231.4,120.1v87.8c0,12.1-9.8,21.9-21.9,21.9h-58.5c-12.1,0-21.9-9.8-21.9-21.9v-87.8c0-12.1,9.8-21.9,21.9-21.9h58.5c12.1,0,21.9,9.8,21.9,21.9h0ZM172.9,186h-14.6v14.6h14.6v-14.6ZM172.9,156.7h-14.6v14.6h14.6v-14.6ZM202.1,186h-14.6v14.6h14.6v-14.6ZM202.1,156.7h-14.6v14.6h14.6v-14.6ZM202.1,127.5h-43.9v14.6h43.9v-14.6ZM187.5,47v43.9h-36.6c-16.2,0-29.3,13.1-29.3,29.3v96.5c0,2.5.3,4.9,1,7.3H48.5c-12.1,0-21.9-9.8-21.9-21.9v-118.5h51.2c8.1,0,14.6-6.5,14.6-14.6V25.1h73.2c12.1,0,21.9,9.8,21.9,22h0ZM107,149.4h-58.5v14.6h58.5v-14.6ZM107,112.8h-58.5v14.6h58.5v-14.6Z"/>
  </g>
</svg>