<?xml version="1.0" encoding="UTF-8"?>
<svg id="Capa_1" xmlns="http://www.w3.org/2000/svg" version="1.1" viewBox="0 0 250 250">
  <!-- Generator: Adobe Illustrator 29.8.1, SVG Export Plug-In . SVG Version: 2.1.1 Build 2)  -->
  <defs>
    <style>
      .st0 {
        fill: #d4ac6b;
        fill-rule: evenodd;
      }
    </style>
  </defs>
  <path id="Trazado_405" class="st0" d="M194.3,119.9c10.1,10.7,19,22.4,26.7,35,21.4,37.7-9.1,75.9-49.9,75.2-40.9.7-71.4-37.6-49.9-75.2,7.6-12.6,16.6-24.3,26.7-35,1.5.5,3,.7,4.5.7h37.5c1.5,0,3.1-.2,4.5-.7ZM42.7,25.9c-10.3,0-18.7,8.4-18.7,18.7v136.8c0,10.3,8.4,18.7,18.7,18.7h68.9c-6.4-15.9-5-33.9,3.9-48.6,1.8-3.1,3.7-6.1,5.7-9.1-1.2-.8-2-2.2-2-3.6v-5.6c0-2.4,1.9-4.3,4.3-4.3h7.8c3.5-4.3,7.1-8.5,10.7-12.5-1.1-1-2-2.2-2.7-3.5h-15.8c-2.4,0-4.3-1.9-4.3-4.3v-5.6c0-2.4,1.9-4.3,4.3-4.3h15.5c1.3-2.6,3.4-4.8,5.9-6.2l-4.5-4.5c-2.6-2.6-4.2-6.1-4.4-9.8H48.9c-2.4,0-4.3-1.9-4.3-4.3v-16.9c0-2.4,1.9-4.3,4.3-4.3h94.6c2.4,0,4.3,1.9,4.3,4.3v5.4c3.1-.7,6.3-.4,9.2.7,2-4.8,6.3-8.2,11.4-9.2v-9.5c0-10.3-8.4-18.7-18.7-18.7H42.7ZM152.3,114c-4.6.1-8.5-3.6-8.6-8.2s3.6-8.5,8.2-8.6c.1,0,.2,0,.4,0h37.5c4.6-.1,8.5,3.6,8.6,8.2s-3.6,8.5-8.2,8.6c-.1,0-.2,0-.4,0h-37.5ZM52.8,98.8h16.1c2.4,0,4.3,1.9,4.3,4.3v5.6c0,2.4-1.9,4.3-4.3,4.3h-16.1c-2.4,0-4.3-1.9-4.3-4.3v-5.6c0-2.4,1.9-4.3,4.3-4.3ZM88.2,159.1c-2.4,0-4.3,1.9-4.3,4.3v5.6c0,2.4,1.9,4.3,4.3,4.3h16.1c2.4,0,4.3-1.9,4.3-4.3v-5.6c0-2.4-1.9-4.3-4.3-4.3h-16.1ZM52.8,159.1h16.1c2.4,0,4.3,1.9,4.3,4.3v5.6c0,2.4-1.9,4.3-4.3,4.3h-16.1c-2.4,0-4.3-1.9-4.3-4.3v-5.6c0-2.4,1.9-4.3,4.3-4.3h0ZM88.2,128.9c-2.4,0-4.3,1.9-4.3,4.3v5.6c0,2.4,1.9,4.3,4.3,4.3h16.1c2.4,0,4.3-1.9,4.3-4.3v-5.6c0-2.4-1.9-4.3-4.3-4.3h-16.1ZM52.8,128.9h16.1c2.4,0,4.3,1.9,4.3,4.3v5.6c0,2.4-1.9,4.3-4.3,4.3h-16.1c-2.4,0-4.3-1.9-4.3-4.3v-5.6c0-2.4,1.9-4.3,4.3-4.3h0ZM88.2,98.8h16.1c2.4,0,4.3,1.9,4.3,4.3v5.6c0,2.4-1.9,4.3-4.3,4.3h-16.1c-2.4,0-4.3-1.9-4.3-4.3v-5.6c0-2.4,1.9-4.3,4.3-4.3h0ZM170.6,190.5c-2.5,0-4.9-.7-6.9-2-1.8-1.2-3.1-3-3.7-5.2-.7-2-2.8-3.1-4.8-2.4-1.8.6-2.8,2.4-2.6,4.2,1,4,3.4,7.5,6.9,9.7,2.3,1.5,4.9,2.5,7.6,3v3c0,2.1,1.7,3.8,3.8,3.8,2.1,0,3.8-1.7,3.8-3.8h0v-2.9c3.4-.5,6.6-1.7,9.4-3.7,3.4-2.4,5.4-6.4,5.2-10.5,0-.5,0-1,0-1.4-.5-4.5-3.1-8.4-7-10.6-3.3-1.8-6.9-3-10.6-3.5-2.5-.3-5-1.1-7.2-2.4-1.6-1-2.6-2.7-2.7-4.5-.1-2.1.8-4.1,2.4-5.4,1.3-1,2.9-1.7,4.5-2,.7-.1,1.4-.2,2.1-.2h.5c.9,0,1.9.1,2.8.4,3.1.7,5.6,2.9,6.8,5.8.9,1.9,3.1,2.8,5,1.9,1.9-.8,2.7-3,2-4.9-2.1-5.2-6.6-9-12-10.3-.4,0-.7-.2-1.1-.2v-3c0-2.1-1.7-3.8-3.8-3.8-2.1,0-3.8,1.7-3.8,3.8h0v3c-2.8.5-5.5,1.8-7.8,3.6-3.6,2.8-5.5,7.1-5.3,11.7.1,4.3,2.5,8.3,6.2,10.6,3.1,1.9,6.5,3.1,10.1,3.5,2.8.3,5.4,1.2,7.9,2.5,1.9,1,3.1,2.9,3.4,5,0,.3,0,.5,0,.7,0,1.7-.8,3.3-2.2,4.3-1.9,1.3-4.1,2.1-6.4,2.3-.6,0-1.2.1-1.7.1h-.8ZM152.3,90.6l-7.2-7.2c-3.4-3.4-3.4-8.8,0-12.2,2.9-2.9,7.3-3.3,10.8-1.2,2.1,1.3,4.8.7,6.1-1.3.3-.4.5-.9.6-1.5,1-4.7,5.6-7.6,10.3-6.6,3.3.7,5.9,3.3,6.6,6.6.5,2.4,2.9,3.9,5.3,3.4.5-.1,1-.3,1.5-.6,3.4-2.2,7.9-1.7,10.8,1.2h0c3.4,3.4,3.4,8.8,0,12.2l-7.2,7.2h-37.6Z"/>
</svg>