<?xml version="1.0" encoding="UTF-8"?>
<svg id="Capa_1" xmlns="http://www.w3.org/2000/svg" version="1.1" viewBox="0 0 250 250">
  <!-- Generator: Adobe Illustrator 29.8.1, SVG Export Plug-In . SVG Version: 2.1.1 Build 2)  -->
  <defs>
    <style>
      .st0 {
        fill: #d4ac6b;
      }
    </style>
  </defs>
  <path id="Trazado_324" class="st0" d="M222.6,219c-1.9-17.6-14-32.5-30.9-37.9,11-7.6,13.9-22.6,6.3-33.7-7.6-11-22.6-13.9-33.7-6.3-11,7.6-13.9,22.6-6.3,33.7,1.7,2.5,3.8,4.6,6.3,6.3-3,.9-5.8,2.2-8.5,3.7-3.7-3-7.7-5.4-12.1-7.3h-.2c-1.7-.8-3.5-1.5-5.3-2,12.8-8.1,16.6-25,8.5-37.8s-25-16.6-37.8-8.5c-12.8,8.1-16.6,25-8.5,37.8,2.2,3.4,5.1,6.4,8.5,8.5-1.8.5-3.6,1.2-5.3,1.9h-.2c-4.3,1.9-8.4,4.4-12.1,7.4-2.7-1.5-5.5-2.8-8.5-3.7,11-7.6,13.9-22.6,6.3-33.7-7.6-11-22.6-13.9-33.7-6.3-11,7.6-13.9,22.6-6.3,33.7,1.7,2.5,3.8,4.6,6.3,6.3-16.9,5.4-29,20.2-30.9,37.9-.2,1.8,1.1,3.3,2.8,3.5h191.9c1.8,0,3.2-1.4,3.2-3.2v-.3h.2ZM160.2,161.2c0-9.9,8-17.9,17.9-17.9s17.9,8,17.9,17.9-8,17.9-17.9,17.9h0c-9.9,0-17.8-8-17.9-17.9ZM123.7,179.9h0c1.3,0,2.5,0,3.7.2l-3.7,2.9-3.8-2.9c1.2-.1,2.5-.2,3.7-.2h.1ZM128,209.9l-4.3,4.8-4.3-4.8,3.5-17,.8-.9.8.9,3.5,17ZM111.5,181.5l7.6,5.9-1.6,1.9h0l-2.4,2.9-5.6-10c.7-.2,1.3-.4,2-.6h0ZM129.9,189.4h0l-1.6-1.9,7.6-5.9c.7.2,1.3.4,2,.6l-5.6,10-2.4-2.8h0ZM102.6,152.5c0-11.6,9.4-21,21-21s21,9.4,21,21-9.4,21-21,21h0c-11.6,0-21-9.4-21-21h0ZM51.4,161.2c0-9.9,8-17.9,17.9-17.9s17.9,8,17.9,17.9-8,17.9-17.9,17.9h0c-9.9,0-17.8-8-17.9-17.9ZM69.3,185.5c6,0,11.9,1.4,17.2,4.1-7,7.4-11.6,16.7-13.2,26.7H31.6c3.6-17.9,19.4-30.8,37.7-30.8h0ZM93.5,191.5c.2-.2.5-.4.7-.6,2.8-2.5,6-4.6,9.3-6.3l8.3,14.7c.5.9,1.4,1.5,2.5,1.6h.4l-1.9,9.2c-.2,1,0,2,.8,2.8l2.9,3.2h-36.7c1.8-9.5,6.6-18.2,13.8-24.7h-.1ZM130.9,216.2l2.9-3.2c.7-.8,1-1.8.8-2.8l-1.9-9.2h.4c1,0,2-.7,2.5-1.6l8.3-14.7c3.4,1.7,6.5,3.8,9.3,6.3.2.2.4.4.7.6,7.1,6.5,12,15.2,13.8,24.7h-36.8ZM174,216.2c-1.7-10-6.3-19.3-13.2-26.7,19-9.5,42.1-1.8,51.6,17.1,1.5,3,2.6,6.2,3.3,9.5h-41.7ZM94.7,67.4c-4.1,0-7.4,3.3-7.4,7.4s1.1,4.6,3.1,6l13,9.4c.4.2.5.7.4,1.1l-5,15.3c-1.3,3.9.9,8,4.7,9.3.7.2,1.5.4,2.3.4,1.5,0,3-.5,17.3-10.9.3-.3.8-.3,1.2,0l13,9.5c3.3,2.4,7.9,1.7,10.3-1.6,1.4-1.9,1.8-4.4,1.1-6.6l-5-15.3c-.2-.4,0-.9.4-1.1l13-9.4c3.3-2.4,4-7,1.7-10.3-1.4-1.9-3.6-3.1-6-3.1h-16c-.4,0-.8-.2-.9-.7l-4.9-15.3h0c-1.2-3.9-5.4-6-9.3-4.8-2.3.7-4,2.5-4.8,4.8l-4.9,15.3c0,.4-.5.7-.9.7h-16.4ZM120.5,39.9v-12.1c0-1.8,1.4-3.2,3.2-3.2s3.2,1.4,3.2,3.2h0v12.1c0,1.8-1.4,3.2-3.2,3.2s-3.2-1.4-3.2-3.2h0ZM164.1,73.5c0-1.8,1.4-3.2,3.2-3.2h12.1c1.8,0,3.2,1.4,3.2,3.2s-1.4,3.2-3.2,3.2h-12.1c-1.8,0-3.2-1.4-3.2-3.2h0ZM64.7,73.5c0-1.8,1.4-3.2,3.2-3.2h12.1c1.8,0,3.2,1.4,3.2,3.2s-1.4,3.2-3.2,3.2h-12.1c-1.8,0-3.2-1.4-3.2-3.2h0ZM85.4,45.8c-1.2-1.2-1.2-3.3,0-4.5s3.3-1.2,4.5,0l8.5,8.5c1.2,1.2,1.2,3.3,0,4.5s-3.3,1.2-4.5,0l-8.5-8.5ZM145.6,54.4c-1.2-1.2-1.2-3.3,0-4.5l8.5-8.5c1.2-1.2,3.3-1.2,4.5,0s1.2,3.3,0,4.5h0l-8.5,8.5c-1.2,1.2-3.3,1.2-4.5,0Z"/>
</svg>