<?xml version="1.0" encoding="UTF-8"?>
<svg id="Capa_1" xmlns="http://www.w3.org/2000/svg" version="1.1" viewBox="0 0 250 250">
  <!-- Generator: Adobe Illustrator 29.8.1, SVG Export Plug-In . SVG Version: 2.1.1 Build 2)  -->
  <defs>
    <style>
      .st0 {
        fill: #d4ab6b;
      }
    </style>
  </defs>
  <g id="technology">
    <g id="Page-1">
      <g id="_x30_19---Technology-Engineering">
        <path id="Shape" class="st0" d="M25.7,140.6l13.8,2.3c2.2,10.6,6.4,20.6,12.3,29.6l-8.2,11.4c-1.7,2.3-1.7,5.4,0,7.7,2.1,2.5,4.2,4.9,6.6,7.2,2.3,2.3,4.7,4.5,7.2,6.6,2.3,1.7,5.4,1.8,7.7,0l11.4-8.2c9,5.9,19,10.1,29.6,12.3l2.3,13.8c.4,2.8,2.7,5,5.5,5.4,2,.2,3.9.4,6,.5,2,0,3.7-1.4,3.8-3.4,0,0,0,0,0-.1v-28.7c0-1.9-1.5-3.5-3.5-3.6-37.5-1.9-66.4-34-64.4-71.5,1.8-34.8,29.6-62.6,64.4-64.4,1.9,0,3.5-1.6,3.5-3.6v-28.7c0-2-1.6-3.6-3.6-3.6,0,0-.1,0-.2,0-2,0-4,.2-6,.4-2.8.4-5.1,2.6-5.5,5.4l-2.3,13.8c-10.5,2.2-20.6,6.4-29.6,12.3l-11.4-8.2c-2.3-1.7-5.5-1.7-7.7,0-2.5,2.1-4.9,4.2-7.2,6.6-2.3,2.3-4.5,4.7-6.6,7.2-1.7,2.3-1.8,5.4,0,7.7l8.2,11.4c-5.9,9-10.1,19-12.3,29.6l-13.8,2.3c-2.8.4-5,2.7-5.4,5.5-.7,6.4-.7,12.9,0,19.3.3,2.9,2.5,5.2,5.4,5.7Z"/>
        <path id="Shape1" data-name="Shape" class="st0" d="M120.1,71.8c-29.6,1.9-52.1,27.4-50.2,57,1.7,27,23.2,48.5,50.2,50.2,1.8,0,3.3-1.3,3.4-3.1,0,0,0-.1,0-.2v-100.5c0-1.8-1.4-3.3-3.2-3.3,0,0-.1,0-.2,0h0Z"/>
        <path id="Shape2" data-name="Shape" class="st0" d="M148.6,75.3h-17.9v7.2h17.9c5.9,0,10.7-4.8,10.7-10.7v-22.1c5.6-2,8.5-8.1,6.5-13.7-2-5.6-8.1-8.5-13.7-6.5-5.6,2-8.5,8.1-6.5,13.7,1.1,3.1,3.5,5.5,6.5,6.5v22.1c0,2-1.6,3.6-3.6,3.6h0Z"/>
        <path id="Shape3" data-name="Shape" class="st0" d="M130.7,96.7h35.8c2,0,3.6-1.6,3.6-3.6,0-2-1.6-3.6-3.6-3.6h-35.8v7.2Z"/>
        <path id="Shape4" data-name="Shape" class="st0" d="M130.7,175.5h17.9c2,0,3.6,1.6,3.6,3.6v22.1c-5.6,2-8.5,8.1-6.5,13.7,2,5.6,8.1,8.5,13.7,6.5,5.6-2,8.5-8.1,6.5-13.7-1.1-3.1-3.5-5.5-6.5-6.5v-22.1c0-5.9-4.8-10.7-10.7-10.7h-17.9v7.2Z"/>
        <path id="Shape5" data-name="Shape" class="st0" d="M184.4,139.7h-53.7v7.2h53.7c2,0,3.6,1.6,3.6,3.6v18.6c-5.6,2-8.5,8.1-6.5,13.7s8.1,8.5,13.7,6.5c5.6-2,8.5-8.1,6.5-13.7-1.1-3.1-3.5-5.5-6.5-6.5v-18.6c0-5.9-4.8-10.7-10.7-10.7Z"/>
        <path id="Shape6" data-name="Shape" class="st0" d="M220.2,114.6c-4.5,0-8.6,2.9-10.1,7.2h-79.4v7.2h79.4c2,5.6,8.1,8.5,13.7,6.5,5.6-2,8.5-8.1,6.5-13.7-1.5-4.3-5.6-7.1-10.1-7.1Z"/>
        <path id="Shape7" data-name="Shape" class="st0" d="M170.1,157.6c0-2-1.6-3.6-3.6-3.6h-35.8v7.2h35.8c2,0,3.6-1.6,3.6-3.6h0Z"/>
        <path id="Shape8" data-name="Shape" class="st0" d="M195.1,100.3v-18.6c5.6-2,8.5-8.1,6.5-13.7-2-5.6-8.1-8.5-13.7-6.5-5.6,2-8.5,8.1-6.5,13.7,1.1,3.1,3.5,5.5,6.5,6.5v18.6c0,2-1.6,3.6-3.6,3.6h-53.7v7.2h53.7c5.9,0,10.7-4.8,10.7-10.7Z"/>
      </g>
    </g>
  </g>
</svg>