<?xml version="1.0" encoding="UTF-8"?>
<svg id="Capa_1" xmlns="http://www.w3.org/2000/svg" version="1.1" viewBox="0 0 250 250">
  <!-- Generator: Adobe Illustrator 29.8.1, SVG Export Plug-In . SVG Version: 2.1.1 Build 2)  -->
  <defs>
    <style>
      .st0 {
        fill: #d4ac6b;
      }
    </style>
  </defs>
  <g id="Grupo_224">
    <path id="Trazado_89" class="st0" d="M117.9,159.7c1.5-1.5,1.5-4,0-5.5s-4-1.5-5.5,0-1.5,4,0,5.5h0c1.5,1.5,4,1.5,5.5,0Z"/>
    <path id="Sustracción_1" class="st0" d="M142.2,110.2c-23.6,0-42.8-19.2-42.8-42.8s19.2-42.8,42.8-42.8,42.8,19.2,42.8,42.8-19.2,42.8-42.8,42.8ZM133.4,74.7c-.9,0-1.8.3-2.5.9-1.6,1.4-1.9,3.8-.5,5.5,1.9,2.3,4.3,4.1,7.1,5.1v4.5c0,2.1,1.7,3.9,3.9,3.9s3.9-1.7,3.9-3.9v-4.6c4.7-1.7,7.8-6.1,7.8-11s-5.2-11.7-11.7-11.7-3.9-1.7-3.9-3.9,1.7-3.9,3.9-3.9c1.6,0,3.1.8,4.2,2,.7.7,1.7,1.1,2.7,1.1s2.1-.4,2.8-1.2c.7-.7,1.1-1.7,1.1-2.8s-.4-2-1.2-2.7c-1.6-1.6-3.6-2.8-5.7-3.6v-4.5c0-2.1-1.7-3.9-3.9-3.9s-3.9,1.7-3.9,3.9v4.6c-4.7,1.7-7.8,6.1-7.8,11s5.2,11.7,11.7,11.7,3.9,1.7,3.9,3.9-1.7,3.9-3.9,3.9c-2-.2-3.9-1.3-5.1-2.9-.7-.9-1.8-1.4-3-1.4h0Z"/>
    <path id="Trazado_91" class="st0" d="M71.1,222.6c1.5,1.5,4,1.5,5.5,0l18.9-18.6c3.1-3.2,4.2-7.8,2.8-12.1l4.1-3.9c2.2-2.1,5.1-3.3,8.1-3.3h51.7c9.1,0,17.9-3.5,24.4-9.9.3-.3-2.1,2.5,35.3-42.1,5.6-6.5,4.8-16.4-1.7-21.9-6.5-5.6-16.4-4.8-21.9,1.7l-22.9,23.6c-3-3.6-7.4-5.8-12.1-5.8h-43.4c-6.2-2.6-12.8-3.9-19.5-3.9-18.1-.6-35.1,9-43.9,24.9-3.8-.7-7.7.5-10.4,3.2l-18.5,18.5c-1.5,1.5-1.5,4,0,5.5l43.7,44h-.2ZM100.2,134.3c5.9,0,11.7,1.2,17.1,3.6.5.2,1,.3,1.6.3h44.2c4.3,0,7.9,3.3,8,7.6,0,4.3-3.3,7.9-7.6,8h-32.1c-2.1,0-3.9,1.7-3.9,3.9s1.7,3.9,3.9,3.9h31.7c8.6,0,15.5-6.9,15.6-15.5,0-.7,0-1.4-.1-2.1,22.2-22.8,25.3-26,25.5-26.2,2.8-3.3,7.7-3.7,11-.9,3.3,2.8,3.7,7.7.9,11h0l-34.9,41.7c-5.1,4.9-11.8,7.6-18.8,7.6h-51.7c-5,0-9.9,1.9-13.5,5.5l-3.3,3.2-30.5-30.5c7.3-13.5,21.7-21.7,37.1-21h-.2ZM51.5,160.1c1.3-1.3,3.3-1.5,4.8-.5.7.4-1.3-1.4,33.7,33.5,1.5,1.5,1.5,4,0,5.5l-16.1,15.8-38.2-38.5,15.8-15.8Z"/>
  </g>
</svg>