<?xml version="1.0" encoding="UTF-8"?>
<svg id="Capa_1" xmlns="http://www.w3.org/2000/svg" version="1.1" viewBox="0 0 250 250">
  <!-- Generator: Adobe Illustrator 29.8.1, SVG Export Plug-In . SVG Version: 2.1.1 Build 2)  -->
  <defs>
    <style>
      .st0 {
        fill: #d4ac6b;
      }
    </style>
  </defs>
  <g id="Grupo_223">
    <path id="Trazado_81" class="st0" d="M166.9,37.7c30.9,0,55.9,25,55.9,55.9s-4.5,25.6-12.8,35.6c-1,1.2-1.1,2.8-.2,4.1l9.1,14.4-23.3-5.2c-.8-.2-1.7,0-2.4.3-12.5,6.7-27.2,8.4-40.9,4.6.3,2.4.5,4.9.6,7.3,4.6,1.1,9.3,1.6,14,1.6,9.9,0,19.6-2.3,28.4-6.8l30.3,6.7h.8c1.9,0,3.5-1.6,3.5-3.5s-.2-1.3-.5-1.8l-12.3-19.4c21-27.6,15.7-67.1-11.9-88.1-10.9-8.3-24.3-12.9-38.1-12.9-33.4-.4-61.1,25.8-62.7,59.2,2.3.7,4.6,1.6,6.8,2.6.6-30.4,25.4-54.7,55.8-54.8h0v.2Z"/>
    <path id="Trazado_82" class="st0" d="M138.9,67.4h55.9v10.5h-55.9v-10.5Z"/>
    <path id="Trazado_83" class="st0" d="M138.9,88.3h55.9v10.5h-55.9v-10.5Z"/>
    <path id="Trazado_84" class="st0" d="M152.9,109.3h41.9v10.5h-41.9v-10.5Z"/>
    <path id="Trazado_85" class="st0" d="M53.5,211.9c30.7,16.4,68.8,4.8,85.2-25.9s4.8-68.8-25.9-85.2-68.8-4.8-85.2,25.9c-12,22.5-9.2,50,7,69.7l-14.4,22.8,33.3-7.4h0ZM83,193.1c-3.9,0-7-3.1-7-7s3.1-7,7-7,7,3.1,7,7-3.1,7-7,7ZM83,119.8c10.6,0,19.2,8.6,19.2,19.2s-5.7,16.1-14,18.5v13h-10.5v-17.5c0-2.9,2.3-5.2,5.2-5.2h0c4.8,0,8.7-3.9,8.7-8.7s-3.9-8.7-8.7-8.7-8.7,3.9-8.7,8.7h-10.5c0-10.6,8.6-19.2,19.2-19.2h.1Z"/>
  </g>
</svg>