<?xml version="1.0" encoding="UTF-8"?>
<svg id="Capa_1" data-name="Capa 1" xmlns="http://www.w3.org/2000/svg" viewBox="0 0 250 250">
  <g id="Grupo_135" data-name="Grupo 135">
    <path id="Trazado_152" data-name="Trazado 152" d="M145.5,162.05v2.74M152.79,154.84c-.02-.48-.02-.95,0-1.43,0-20.65-.12-41.3-.1-61.96-.28-1.95,1.08-3.75,3.02-4.03.3-.04.61-.05.92-.01,2.13-.07,4.26-.01,6.47-.01v-7.11c-1.88,0-3.61.09-5.32-.02-7.32-.47-12.38,4.8-12.29,12.14.25,19.96,0,39.92,0,59.88v2.66M152.79,164.79c0-.68-.04-1.9,0-2.87"/>
    <path id="Trazado_154" data-name="Trazado 154" d="M38.23,100.31c-.74-1.72-1.48-3.49-2.27-5.25-2.22-4.95-2.11-4.85,1.63-8.81,1.76-1.86,3.27-2.38,5.47-.97,4.7,3.02,9.34,3.47,14.17-.04,1.8-1.05,3.77-1.77,5.82-2.11,1.94-.37,3.51-1.8,4.05-3.7.72-2.24,1.56-4.44,2.53-6.59.37-.67,1.01-1.14,1.76-1.28,2.07-.18,4.15-.2,6.23-.06.74.15,1.38.62,1.73,1.29,1.07,2.32,1.99,4.72,2.88,7.12.57,1.5,1.82,2.65,3.36,3.09,3.61,1.36,7.2,2.8,10.71,4.41,1.41.78,3.1.84,4.55.16,2.13-.99,4.32-1.87,6.42-2.94.92-.63,2.17-.46,2.9.39,5.22,4.71,5.38,4.75,2.43,11.02-1.65,2.77-1.56,6.24.23,8.91,1.44,2.52,2.52,5.23,3.22,8.05.43,2.07,1.99,3.71,4.02,4.26,1.98.6,3.86,1.53,5.84,2.16,1.18.23,1.99,1.31,1.88,2.51.27,6.91.35,7.04-6.1,9.37-3.13.77-5.52,3.3-6.11,6.47-.71,2.75-1.84,5.38-3.34,7.79-1.25,1.87-1.33,4.3-.2,6.25,1.02,1.97,1.93,3.99,2.73,6.05.21.54-.15,1.31-.26,1.98,0,.06-.09.11-.13.16-4.68,5.54-4.75,5.69-11.3,2.6-2.73-1.55-6.1-1.45-8.73.27-2.76,1.43-5.66,2.57-8.65,3.41-1.63.42-2.94,1.62-3.49,3.22-.82,2.35-1.69,4.7-2.69,6.97-.37.67-1.01,1.14-1.76,1.29-7.19.8-7.38.83-9.77-5.88-.85-3.25-3.5-5.71-6.81-6.31-2.67-.74-5.22-1.85-7.59-3.29-1.75-1.19-4.01-1.29-5.86-.27-2.02,1.06-4.11,2-6.25,2.79-.6.23-1.44-.16-2.16-.28-.12-.02-.21-.17-.31-.27-5.24-4.64-5.39-4.71-2.42-11.01,1.62-2.78,1.52-6.24-.26-8.92-1.44-2.68-2.56-5.52-3.34-8.46-.42-1.7-1.68-3.08-3.34-3.64-2.29-.79-4.57-1.61-6.78-2.61-.63-.29-.99-1.23-1.46-1.9-.07-.1-.03-.27-.04-.41q-.42-6.78,5.85-9.28c1-.28,1.96-.68,2.86-1.21,1.1-.76,2.01-1.76,2.66-2.92,1.71-3.69,3.18-7.49,4.72-11.26.28-.69.48-1.42.79-2.32M110,124.76c.05-19.57-15.77-35.49-35.35-35.54-19.57-.05-35.49,15.77-35.54,35.35-.05,19.43,15.55,35.28,34.98,35.54,19.52.31,35.6-15.27,35.9-34.79,0-.18,0-.37,0-.55"/>
    <path id="Trazado_155" data-name="Trazado 155" d="M102.91,124.77c-.08,15.66-12.83,28.29-28.49,28.21-15.66-.08-28.29-12.83-28.21-28.49.08-15.56,12.68-28.15,28.23-28.21,15.61-.11,28.36,12.45,28.47,28.06,0,.14,0,.28,0,.43M95.81,124.72c.04-11.74-9.44-21.29-21.18-21.33-11.74-.04-21.29,9.44-21.33,21.18-.04,11.74,9.44,21.29,21.18,21.33,11.68.1,21.23-9.3,21.33-20.98,0-.07,0-.13,0-.2"/>
    <path id="Trazado_156" data-name="Trazado 156" d="M88.72,124.72c-.04,7.82-6.42,14.13-14.25,14.09s-14.13-6.42-14.09-14.25c.04-7.82,6.42-14.13,14.25-14.09.02,0,.04,0,.06,0,7.78.04,14.06,6.38,14.02,14.17,0,.03,0,.05,0,.08"/>
    <path id="Trazado_157" data-name="Trazado 157" d="M220.1,145.29c0,6.72,0,13.45,0,20.17,0,3.45-1.21,4.71-4.58,4.71-13.52.01-27.03.01-40.55,0-3.3,0-4.57-1.23-4.58-4.5-.02-13.59-.02-27.18,0-40.76,0-3.27,1.26-4.5,4.57-4.5,13.52-.01,27.03-.01,40.55,0,3.38,0,4.58,1.25,4.58,4.7,0,6.72,0,13.45,0,20.17M190.9,150.73c-.68-.93-1.14-1.64-1.69-2.27-.55-.62-1.14-1.21-1.76-1.77-1.21-1.54-3.44-1.81-4.98-.6-.13.1-.25.21-.36.32-1.39,1.35-1.41,3.57-.06,4.96.13.13.27.26.42.37,1.93,1.99,3.9,3.93,5.87,5.89,2.72,2.7,4.79,2.51,6.9-.66,4.12-6.16,8.23-12.32,12.33-18.49.53-.73,1-1.5,1.42-2.29.87-1.72.19-3.83-1.53-4.7-1.45-.73-3.21-.38-4.26.86-.44.53-.84,1.1-1.21,1.69-3.58,5.35-7.14,10.71-11.13,16.68"/>
    <path id="Trazado_158" data-name="Trazado 158" d="M195.16,108.73h-19.75c-3.9,0-5.01-1.08-5.02-4.89,0-13.32-.01-26.63-.01-39.93,0-3.82,1.12-4.9,4.99-4.91h39.92c3.67,0,4.8,1.15,4.8,4.88,0,13.31,0,26.62,0,39.93,0,3.82-1.1,4.91-4.99,4.91-6.65.01-13.31.01-19.96,0M190.96,89.22c-1.31-1.48-2.35-2.77-3.53-3.93-1.24-1.52-3.48-1.75-5-.51s-1.75,3.48-.51,5c.17.21.37.4.58.57,2.08,2.13,4.19,4.24,6.32,6.32,1.16,1.58,3.38,1.93,4.97.77.48-.35.87-.82,1.12-1.36,1.69-2.45,3.31-4.95,4.96-7.42,2.92-4.38,5.83-8.76,8.75-13.13,1.14-1.24,1.13-3.15-.03-4.37-1.02-.85-2.33-1.26-3.65-1.17-.93.11-1.93,1.25-2.56,2.17-3.75,5.48-7.4,11.04-11.42,17.07"/>
    <path d="M163.11,130.04h-10.36c-.03-12.87-.07-25.73-.06-38.59-.04-.3-.05-.61-.01-.92.23-1.95,2-3.35,3.95-3.12,2.13-.07,4.26-.01,6.47-.01v-7.11c-1.88,0-3.61.09-5.32-.02-7.32-.47-12.38,4.8-12.29,12.14.15,12.54.11,25.08.06,37.63h-12.49v6.33h12.46c-.02,5.31-.04,10.62-.04,15.93v12.49h7.29c0-.68-.04-1.9,0-2.87v-7.08c-.02-.48-.02-.95,0-1.43,0-5.68-.02-11.36-.03-17.04h10.34v-6.33Z"/>
  </g>
</svg>