<?xml version="1.0" encoding="UTF-8"?>
<svg id="Capa_2" data-name="Capa 2" xmlns="http://www.w3.org/2000/svg" viewBox="0 0 94.39 56.53">
  <defs>
    <style>
      .cls-1 {
        fill: #d4ab6b;
      }
    </style>
  </defs>
  <g id="Capa_1-2" data-name="Capa 1">
    <g>
      <path class="cls-1" d="M64.82,10.09c-3.47-.22-5.87,2.28-5.83,5.76.03,2.37.04,4.74.05,7.1,0,3.58,0,7.17-.02,10.75h-5.93v3h5.91c-.01,2.52-.02,5.04-.02,7.56v5.93h3.46v-4.72s0,0,0,0c-.01-.22-.01-.45,0-.67,0,0,0,0,0,0,0-.04,0-.07,0-.11,0-2.66,0-5.32-.01-7.98h4.91v-3h-4.91c-.02-6.07-.03-12.15-.03-18.23,0-.03,0-.06,0-.09-.02-.13-.02-.26,0-.4,0-.05.01-.1.02-.15.01-.06.02-.11.04-.17.02-.06.04-.12.06-.17.02-.04.03-.08.06-.12.03-.06.07-.12.11-.17.02-.03.04-.07.07-.1.04-.05.09-.11.14-.15.03-.03.05-.05.08-.08.05-.05.11-.09.17-.13.03-.02.06-.04.09-.06.07-.04.14-.07.21-.1.03-.01.06-.02.09-.04.08-.03.16-.05.25-.06.02,0,.05-.01.07-.01.14-.02.28-.02.42,0,1.01-.03,2.02,0,3.07,0h0v-3.38c-.89,0-1.71.04-2.52,0Z"/>
      <path class="cls-1" d="M49.68,28.67c-.94-.3-1.83-.74-2.77-1.03-.97-.26-1.71-1.04-1.91-2.02-.33-1.34-.85-2.62-1.53-3.82-.85-1.27-.89-2.92-.11-4.23,1.4-2.98,1.32-2.99-1.15-5.23-.34-.4-.94-.49-1.37-.19-.99.51-2.03.92-3.04,1.39-.69.32-1.49.29-2.16-.08-1.66-.76-3.37-1.45-5.08-2.09-.73-.21-1.32-.75-1.6-1.47-.42-1.14-.86-2.28-1.37-3.38-.17-.32-.47-.54-.82-.61-.98-.07-1.97-.06-2.96.03-.36.07-.66.29-.84.61-.46,1.02-.86,2.06-1.2,3.12-.26.9-1,1.58-1.92,1.76-.97.17-1.91.5-2.76,1-2.29,1.67-4.49,1.45-6.72.02-1.04-.67-1.76-.42-2.59.46-1.77,1.88-1.83,1.83-.77,4.18.38.83.73,1.68,1.08,2.49h0c-.14.43-.24.77-.37,1.1-.73,1.79-1.43,3.59-2.24,5.34-.31.55-.74,1.03-1.26,1.39-.42.25-.88.44-1.36.58Q-.13,29.2.07,32.41c0,.07-.02.15.02.19.22.31.39.76.69.9,1.04.47,2.13.86,3.22,1.24.79.27,1.39.92,1.58,1.73.37,1.39.9,2.74,1.59,4.01.85,1.27.9,2.91.12,4.23-1.41,2.99-1.34,3.02,1.15,5.22.05.04.09.12.15.13.34.06.74.24,1.03.14,1.02-.38,2.01-.82,2.97-1.33.88-.49,1.95-.44,2.78.13,1.12.69,2.33,1.21,3.6,1.56,1.57.28,2.83,1.45,3.23,2.99,1.14,3.18,1.23,3.17,4.64,2.79.35-.07.66-.3.83-.61.48-1.08.89-2.19,1.28-3.31.26-.76.88-1.33,1.66-1.53,1.42-.4,2.8-.94,4.11-1.62,1.25-.82,2.85-.87,4.14-.13,3.11,1.46,3.14,1.39,5.36-1.24.02-.02.06-.05.06-.08.05-.32.22-.68.12-.94-.38-.98-.81-1.94-1.29-2.87-.54-.93-.5-2.08.09-2.96.71-1.14,1.25-2.39,1.58-3.7.28-1.5,1.42-2.7,2.9-3.07,3.06-1.11,3.02-1.16,2.89-4.45.05-.57-.33-1.08-.89-1.19ZM42.14,31.46c-.15,9.26-7.77,16.66-17.04,16.51-9.22-.12-16.63-7.64-16.6-16.87.03-9.29,7.58-16.8,16.87-16.77,9.29.03,16.8,7.58,16.77,16.87,0,.09,0,.17,0,.26Z"/>
      <path class="cls-1" d="M25.26,17.69c-7.38.03-13.36,6-13.4,13.39-.04,7.43,5.96,13.48,13.39,13.52s13.48-5.96,13.52-13.39h0c0-.07,0-.14,0-.2-.05-7.41-6.1-13.37-13.51-13.32ZM35.4,31.18s0,.06,0,.09c-.05,5.54-4.58,10-10.12,9.96-5.57-.02-10.07-4.55-10.05-10.12.02-5.57,4.55-10.07,10.12-10.05s10.07,4.55,10.05,10.12h0Z"/>
      <path class="cls-1" d="M25.38,24.42s-.02,0-.03,0c-3.71-.02-6.74,2.97-6.76,6.68s2.97,6.74,6.68,6.76,6.74-2.97,6.76-6.68c0-.01,0-.02,0-.04.02-3.69-2.96-6.7-6.65-6.72Z"/>
      <path class="cls-1" d="M94.39,40.95c0-3.19,0-6.38,0-9.57,0-1.64-.57-2.23-2.17-2.23-6.41,0-12.83,0-19.24,0-1.57,0-2.17.58-2.17,2.14-.01,6.45-.01,12.9,0,19.34,0,1.55.61,2.14,2.17,2.14,6.41,0,12.83,0,19.24,0,1.6,0,2.17-.6,2.17-2.24,0-3.19,0-6.38,0-9.57h0ZM89.13,36.63c-.2.38-.43.74-.67,1.09-1.95,2.93-3.9,5.85-5.85,8.78-1.01,1.5-1.99,1.59-3.28.31-.93-.93-1.87-1.85-2.79-2.79-.07-.05-.14-.11-.2-.17-.64-.66-.63-1.71.03-2.35.05-.05.11-.11.17-.15.73-.57,1.79-.45,2.36.28.29.26.57.54.83.84.26.3.48.63.8,1.07,1.89-2.83,3.58-5.38,5.28-7.92.17-.28.36-.55.57-.8.5-.59,1.33-.76,2.02-.41.82.41,1.14,1.41.73,2.23Z"/>
      <polygon class="cls-1" points="80.53 43.53 80.53 43.52 80.53 43.53 80.53 43.53"/>
      <path class="cls-1" d="M73.18,23.6h9.37,0c3.16,0,6.31,0,9.47,0,1.84,0,2.37-.52,2.37-2.33V2.32c0-1.77-.54-2.32-2.28-2.32h-18.94c-1.84,0-2.37.52-2.37,2.33,0,6.31,0,12.63,0,18.95,0,1.81.53,2.32,2.38,2.32ZM76.51,12.23c.72-.59,1.79-.48,2.37.24.56.55,1.05,1.17,1.67,1.87h0c1.91-2.86,3.64-5.5,5.42-8.1.3-.44.77-.98,1.21-1.03.63-.05,1.25.15,1.73.55.55.58.55,1.49.01,2.08-1.38,2.08-2.77,4.16-4.15,6.23-.78,1.18-1.56,2.36-2.35,3.52-.12.26-.3.48-.53.65-.75.55-1.81.39-2.36-.36-1.01-.99-2.01-1.99-3-3-.1-.08-.19-.17-.28-.27-.59-.72-.48-1.79.24-2.37Z"/>
    </g>
  </g>
</svg>