<?xml version="1.0" encoding="UTF-8"?>
<svg id="Capa_1" data-name="Capa 1" xmlns="http://www.w3.org/2000/svg" viewBox="0 0 250 250">
  <g id="Grupo_132-2" data-name="Grupo 132-2">
    <path id="Trazado_138" data-name="Trazado 138" d="M85.53,171.16v2.17c0,8.94.08,17.87-.06,26.8-.24,1.72.8,3.36,2.45,3.87,3.41,2.02,7.23,3.25,11.18,3.61,14.64-.07,29.28.07,43.92-.11,2.66-.03,5.27-.7,7.61-1.96,16.67-9.43,33.23-19.06,49.79-28.66,2.93-1.46,4.13-5.02,2.67-7.95-.06-.11-.12-.23-.18-.34-1.7-2.86-5.39-3.8-8.25-2.1-.06.04-.12.07-.18.11-9.52,5.45-19.02,10.94-28.49,16.46-.61.42-1.01,1.09-1.1,1.83-.1,6.52-5.46,11.72-11.98,11.62-1.03-.02-2.05-.16-3.03-.44-11.69-3.03-23.34-6.21-35-9.34-2.11-.57-3.05-1.99-2.57-3.8.45-1.74,2.03-2.48,4.16-1.93,5.03,1.33,10.06,2.67,15.08,4.04,6.52,1.75,13.03,3.54,19.57,5.25,3.11,1.04,6.48-.63,7.52-3.74.3-.89.38-1.85.24-2.78-.44-2.72-2.62-4.83-5.35-5.18-12.93-3.44-25.83-6.94-38.76-10.38-3.41-1.38-7.1-1.91-10.76-1.53-6.15,1.37-12.25,2.96-18.46,4.48M148.46,113.74l-.31.07v57.13c5.15,1.85,11.22,1.71,14.65,6.99.47-.24.74-.37,1.01-.52,9.28-5.36,18.55-10.74,27.86-16.05.82-.43,1.27-1.34,1.11-2.25-.02-10.05-.02-20.1,0-30.15v-1.82c-11.65,0-23-.06-34.35.05-2.08.23-4.04-1.01-4.74-2.98-1.62-3.54-3.45-6.99-5.2-10.47M97.51,161.99c.91-.2,1.64-.34,2.34-.54,4.2-1.2,8.65-1.2,12.85.02,4.71,1.31,9.44,2.56,14.17,3.82,5.01,1.34,10.03,2.67,15.09,4.04v-56.02c-2.03,4.04-3.91,7.62-5.62,11.26-.66,1.72-2.39,2.79-4.22,2.6-10.87-.07-21.71-.03-32.57-.03h-2.04v34.85ZM100.42,47.88l-.43-.23c-1.11,1.05-2.31,2.03-3.31,3.17-7.42,8.33-6.87,21.06,1.24,28.72,3.74,3.28,5.76,8.08,5.49,13.04-.07,1.53,0,3.06,0,4.63h5.96c0-2.97-.05-5.81,0-8.65-.1-1.62,1.13-3.02,2.75-3.12.26-.02.52,0,.78.06,1.54.3,2.59,1.73,2.41,3.29v8.45h5.96c0-.93.06-1.8,0-2.65-.57-5.94,1.71-11.79,6.15-15.78,7.91-8.15,7.72-21.16-.42-29.07-.46-.45-.94-.87-1.44-1.27-.42-.3-.86-.58-1.3-.83,0,5.59-.02,10.93,0,16.27.1,1.39-.58,2.71-1.77,3.44-2.75,1.8-5.48,3.62-8.2,5.47-1.16.91-2.79.9-3.95-.02-2.56-1.75-5.11-3.5-7.74-5.15-1.49-.84-2.35-2.47-2.2-4.17.09-5.2.03-10.4.03-15.6M79.49,163.03h-17.64v47.43h17.64v-47.43ZM87.45,121.04c.26.06.52.11.78.14,13.96,0,27.92.02,41.88-.05.78-.13,1.47-.6,1.86-1.29,2.59-5.01,5.08-10.07,7.58-15.12.2-.4.33-.84.54-1.41-14.42,0-28.63,0-42.83.03-.52.04-.99.31-1.29.73-2.84,5.57-5.62,11.18-8.53,16.96M150.14,103.31c.04.25.09.5.17.75,2.68,5.38,5.33,10.78,8.11,16.11.5.61,1.25.97,2.04.98,13.53.06,27.05.04,40.58.04.51,0,1.02-.08,1.71-.13-2.9-5.8-5.68-11.41-8.54-16.96-.42-.47-1.02-.74-1.65-.74-4.04-.06-8.08-.03-12.11-.03h-30.32M55.61,169h-17.64v35.52h17.64v-35.52ZM166.49,97.29c-7.02-2.8-10.38-7.78-9.35-13.67,1-6.5,7.08-10.96,13.58-9.96,4.76.73,8.61,4.26,9.76,8.93.79,3.11.26,6.4-1.45,9.11-1.78,2.82-4.62,4.8-7.87,5.52h13.69c-.37-.43-.77-.85-1.18-1.24-1.58-1.13-2.03-3.29-1.02-4.95.56-1.77,2.32-2.88,4.17-2.63,1.95.1,3.91.02,5.84.02v-5.96c-2.17,0-4.28-.04-6.38,0-1.67.09-3.17-.99-3.61-2.6-.94-1.46-.7-3.38.58-4.56,1.58-1.45,3.13-2.95,4.66-4.39l-4.32-4.41c-1.52,1.55-3.05,3-4.47,4.55-1.21,1.34-3.21,1.59-4.72.61-1.6-.48-2.64-2.01-2.51-3.67.06-2.08,0-4.17,0-6.23h-5.94c0,2.17-.04,4.23,0,6.27.11,1.66-.95,3.18-2.55,3.65-1.51.98-3.52.7-4.71-.66-1.41-1.55-2.9-3.04-4.38-4.58l-4.35,4.35c1.52,1.49,2.98,3,4.52,4.43,1.31,1.13,1.62,3.05.73,4.53-.43,1.68-1.98,2.82-3.71,2.73-2.09-.06-4.18,0-6.3,0v5.96c2.22,0,4.35-.14,6.42.06,1.08.04,2.1.52,2.83,1.32,1.6,2.8,2.17,4.04-.46,6.35-.34.36-.65.74-.93,1.14h13.44ZM174.88,85.48c.03-3.29-2.61-5.97-5.9-6-3.29-.03-5.97,2.61-6,5.9-.03,3.29,2.61,5.97,5.9,6,.01,0,.03,0,.04,0,3.26-.02,5.9-2.64,5.96-5.9"/>
  </g>
</svg>