<?xml version="1.0" encoding="UTF-8"?>
<svg id="Capa_1" data-name="Capa 1" xmlns="http://www.w3.org/2000/svg" viewBox="0 0 250 250">
  <g id="Grupo_133-2" data-name="Grupo 133-2">
    <path id="Trazado_139" data-name="Trazado 139" d="M165.02,173.74l7.16,9.36c5.72,7.48,11.39,14.98,17.16,22.41,3.14,4.12,9.03,4.92,13.16,1.77,1.91-1.46,3.19-3.59,3.58-5.96.65-3.51-.83-7.08-3.77-9.1-9.7-7.43-19.4-14.85-29.12-22.25-.86-.66-1.73-1.3-2.4-1.82l-5.76,5.58"/>
    <path id="Trazado_140" data-name="Trazado 140" d="M165.02,173.74l5.76-5.58c.67.5,1.54,1.15,2.4,1.82,9.71,7.42,19.41,14.83,29.12,22.25,2.94,2.02,4.42,5.59,3.77,9.1-.83,5.12-5.65,8.59-10.77,7.76-2.37-.39-4.5-1.66-5.96-3.58-5.77-7.43-11.44-14.94-17.16-22.41l-7.16-9.36"/>
    <path id="Trazado_141" data-name="Trazado 141" d="M116.92,51.35c-37.38-.54-68.13,29.34-68.66,66.72-.54,37.38,29.34,68.13,66.72,68.66,37.38.54,68.13-29.34,68.66-66.72,0-.01,0-.03,0-.04.49-37.36-29.36-68.06-66.72-68.62M122.26,79.2c.93.77,1.71,1.71,2.31,2.76,10.27,17.57,20.45,35.2,30.77,52.74,2.58,4,1.43,9.34-2.58,11.92-1.52.98-3.31,1.46-5.11,1.36-10.12-.27-20.26-.07-30.39-.07s-20.28-.19-30.39.07c-4.74.24-8.78-3.41-9.02-8.15-.09-1.77.37-3.53,1.32-5.03,10.34-17.6,20.54-35.27,30.84-52.89,1.98-3.99,6.81-5.62,10.8-3.64.51.25,1,.56,1.45.92M128.52,179.71c-33.54,6.9-66.32-14.7-73.22-48.24-6.21-30.19,10.7-60.35,39.68-70.81,1.96-.71,3.98-1.26,6-1.79,1.41-.54,2.99.18,3.52,1.59.04.11.07.21.1.32.43,1.45-.39,2.97-1.84,3.4-.12.04-.25.06-.37.08-4.85,1.23-9.52,3.1-13.89,5.55-15.54,8.44-26.08,23.82-28.33,41.36-4.39,30.81,17.02,59.35,47.84,63.75,29.48,4.2,57.14-15.25,63.15-44.42.74-3.76,1-7.62,1.48-11.44-.24-27.37-19.94-50.69-46.88-55.5-3.03-.5-6.12-.67-9.19-.9-2.12-.16-3.38-1.11-3.4-2.8-.02-1.75,1.34-2.86,3.5-2.86,34.25.42,61.67,28.52,61.25,62.76-.35,29.11-20.91,54.05-49.41,59.97"/>
    <path id="Trazado_142" data-name="Trazado 142" d="M120.07,109.86c0,3.12.02,6.26,0,9.4-.02,2.05-1.01,3.2-2.7,3.25-1.76.05-2.91-1.15-2.92-3.23-.03-6.26-.03-12.53,0-18.79,0-2.08,1.15-3.29,2.9-3.24,1.7.04,2.7,1.19,2.72,3.23.03,3.12,0,6.26,0,9.4"/>
    <path id="Trazado_143" data-name="Trazado 143" d="M120.06,132.41c0,.49.03.99,0,1.48,0,1.54-1.23,2.79-2.77,2.8-1.5,0-2.73-1.17-2.79-2.66-.1-1.04-.1-2.08,0-3.12.05-1.54,1.34-2.75,2.88-2.69,1.54.05,2.75,1.34,2.69,2.88.03.44,0,.88,0,1.32h0"/>
  </g>
</svg>