<?xml version="1.0" encoding="UTF-8"?>
<svg id="Capa_1" data-name="Capa 1" xmlns="http://www.w3.org/2000/svg" viewBox="0 0 250 250">
  <g id="Grupo_137" data-name="Grupo 137">
    <path id="Trazado_159" data-name="Trazado 159" d="M32.85,110.63c0,6.23-.02,12.41.05,18.6,0,.42.61,1.02,1.07,1.21,3.13,1.28,6.28,2.5,9.45,3.65.88.25,1.54.98,1.7,1.88,1.42,5.44,3.56,10.66,6.38,15.53.34.72.38,1.55.1,2.3-1.27,3.13-2.66,6.21-4.09,9.28-.44.68-.27,1.59.39,2.07,4.04,3.98,8.06,8,12.04,12.04.46.59,1.3.73,1.93.32,3.12-1.45,6.25-2.86,9.42-4.17.7-.25,1.48-.21,2.15.11,4.93,2.8,10.19,4.99,15.66,6.52.75.28,1.37.84,1.71,1.56,1.21,2.72,2.28,5.5,3.19,8.33.24,1.54,1.68,2.58,3.22,2.34.07-.01.13-.02.2-.04,3.12-.18,6.26-.05,9.49-.05,0-5.06,0-9.86-.01-14.69,0-.4-.12-.78-.36-1.1-2.7-3.13-3.98-7.23-3.55-11.34.08-1.06-.36-1.38-1.37-1.45-1.6-.08-3.2-.27-4.78-.56-23.58-4.29-39.23-26.88-34.94-50.46,4.29-23.58,26.88-39.23,50.46-34.94,22.24,4.04,37.65,24.48,35.43,46.97-.1,1.12-.22,2.23-.35,3.48h16.31c2.43-.14,4.84.61,6.76,2.11,1.25,1.19,3.14,1.37,4.59.43.9-.4,1.35-.77,1.35-1.83-.05-5.62-.05-11.24,0-16.86.1-.87-.48-1.67-1.33-1.83-3.17-1.16-6.32-2.37-9.44-3.67-.64-.29-1.13-.83-1.37-1.48-1.5-5.54-3.7-10.86-6.55-15.83-.32-.68-.35-1.45-.09-2.15,1.28-3.12,2.67-6.21,4.09-9.28.47-.73.3-1.7-.4-2.22-4.02-3.92-7.99-7.89-11.93-11.9-.49-.65-1.39-.8-2.07-.36-3.07,1.42-6.14,2.81-9.28,4.08-.75.27-1.57.24-2.29-.1-4.93-2.8-10.19-4.98-15.66-6.5-.71-.24-1.28-.76-1.61-1.43-1.28-3.06-2.46-6.17-3.6-9.28-.17-.92-1.02-1.55-1.95-1.44-5.56.07-11.12.07-16.69,0-.92-.12-1.77.49-1.94,1.41-1.1,3.07-2.25,6.13-3.53,9.13-.37.77-1.03,1.37-1.84,1.66-5.41,1.52-10.61,3.69-15.5,6.46-.72.34-1.55.37-2.3.09-3.13-1.27-6.2-2.67-9.28-4.09-.68-.45-1.59-.28-2.07.37-3.97,4.05-8.03,8.02-11.99,12.1-.4.53-.52,1.22-.33,1.86,1.3,3.19,2.79,6.28,4.1,9.45.25.7.22,1.48-.1,2.15-2.82,4.93-5,10.2-6.51,15.68-.27.75-.83,1.37-1.56,1.71-3.48,1.45-7.02,2.78-10.62,4.17M112.5,181.75c0,.13-.06.62-.06,1.11v20.12c-.44,3.66,2.16,6.98,5.82,7.42.54.06,1.08.06,1.61,0,22.23,0,44.47,0,66.7,0,3.6.49,6.92-2.03,7.41-5.63.08-.58.08-1.18,0-1.76.01-6.71.01-13.41,0-20.12,0-.49-.06-.99-.1-1.65-1.04.46-1.91.87-2.81,1.22-7.5,2.69-15.34,4.29-23.29,4.77-.85-.02-1.6.53-1.84,1.34-2.83,7.02-10.82,10.41-17.83,7.57-3.47-1.4-6.22-4.17-7.6-7.65-.24-.76-.94-1.27-1.74-1.26-3.88-.33-7.74-.86-11.56-1.58-4.93-1.07-9.78-2.57-14.71-3.9M182.14,147.62v9.8c.54,5.42-3.41,10.25-8.83,10.79-.65.07-1.31.07-1.96,0-12.09.01-24.19.01-36.29,0-5.38.53-10.17-3.4-10.7-8.78-.06-.63-.06-1.26,0-1.89v-9.88c-4.47,0-8.76-.08-13.05.03-1.74.04-2.81,1.5-2.82,3.48-.03,5.27,0,10.55,0,15.82-.07,2.16.77,4.24,2.32,5.75,1.43,1.56,3.15,2.82,5.06,3.74,4.1,1.58,8.31,2.86,12.59,3.85,3.59.83,7.32,1.05,10.94,1.53,2.54-8.31,6.96-12.18,13.77-12.2,6.86-.03,11.29,3.79,13.87,12.01.26.04.53.05.8.03,4.35-.62,8.75-1.12,13.08-1.93,4.67-.69,9.1-2.49,12.93-5.26,2.36-1.53,3.87-4.07,4.09-6.87.15-5.61.1-11.24.04-16.85.04-1.71-1.3-3.13-3.01-3.17-.06,0-.12,0-.18,0-4.12-.07-8.25-.02-12.64-.02M98.13,122.94c-2.64-2.67-5.01-5.08-7.4-7.46-2.75-3.23-7.59-3.62-10.82-.87-3.23,2.75-3.62,7.59-.87,10.82.26.31.54.59.85.85,3.71,3.74,7.43,7.48,11.2,11.17.93.93,1.97,1.74,3.11,2.41,3.08,2.11,7.26,1.56,9.69-1.27,8.61-8.57,17.2-17.16,25.77-25.78,3.1-2.9,3.26-7.77.36-10.87-.07-.07-.14-.14-.21-.21-2.98-2.95-7.8-2.93-10.75.06-.06.07-.13.13-.19.2-5.74,5.68-11.46,11.4-17.14,17.14-1.16,1.17-2.27,2.42-3.59,3.82M176.57,147.73h-46.56c-.06.15-.1.3-.12.45-.01,2.98-.02,5.96-.02,8.94,0,4.18,1.38,5.58,5.54,5.58h35.58c.63.01,1.26-.02,1.88-.09,1.93-.1,3.48-1.61,3.64-3.54.17-3.77.05-7.54.05-11.34M164.61,141.93h5.99c.76-3.77-1.68-7.44-5.45-8.19-.29-.06-.58-.1-.88-.12-7.38-.13-14.77-.14-22.15,0-3.71.24-6.52,3.45-6.28,7.16.03.41.09.82.19,1.21h5.97c-.62-2.46.98-2.25,2.5-2.24,5.84.02,11.68.06,17.52-.02,1.68-.03,2.87.14,2.61,2.2M153.25,175.18c-4.5-.05-8.2,3.55-8.25,8.05,0,.02,0,.03,0,.05-.08,4.55,3.54,8.31,8.1,8.39s8.31-3.54,8.39-8.1c.08-4.55-3.54-8.31-8.1-8.39-.05,0-.1,0-.14,0"/>
  </g>
</svg>