<?xml version="1.0" encoding="UTF-8"?>
<svg id="Capa_2" data-name="Capa 2" xmlns="http://www.w3.org/2000/svg" viewBox="0 0 53.36 52.43">
  <defs>
    <style>
      .cls-1 {
        fill: #d4ac6b;
      }
    </style>
  </defs>
  <g id="Capa_1-2" data-name="Capa 1">
    <g id="Grupo_132-2" data-name="Grupo 132-2">
      <path id="Trazado_138" data-name="Trazado 138" class="cls-1" d="M15.31,39.77v.7c0,2.88.03,5.75-.02,8.63-.08.55.26,1.08.79,1.25,1.1.65,2.33,1.05,3.6,1.16,4.71-.02,9.43.02,14.14-.04.86,0,1.7-.23,2.45-.63,5.37-3.03,10.7-6.14,16.03-9.23.94-.47,1.33-1.62.86-2.56-.02-.04-.04-.07-.06-.11-.55-.92-1.74-1.22-2.66-.68-.02.01-.04.02-.06.04-3.07,1.76-6.12,3.52-9.17,5.3-.2.14-.33.35-.35.59-.03,2.1-1.76,3.77-3.86,3.74-.33,0-.66-.05-.98-.14-3.76-.98-7.51-2-11.27-3.01-.68-.18-.98-.64-.83-1.22.15-.56.65-.8,1.34-.62,1.62.43,3.24.86,4.85,1.3,2.1.56,4.19,1.14,6.3,1.69,1,.34,2.09-.2,2.42-1.21.1-.29.12-.59.08-.89-.14-.88-.84-1.56-1.72-1.67-4.16-1.11-8.32-2.24-12.48-3.34-1.1-.44-2.29-.61-3.46-.49-1.98.44-3.94.95-5.94,1.44M35.58,21.28l-.1.02v18.39c1.66.6,3.61.55,4.72,2.25.15-.08.24-.12.32-.17,2.99-1.72,5.97-3.46,8.97-5.17.26-.14.41-.43.36-.72,0-3.24,0-6.47,0-9.71v-.59c-3.75,0-7.41-.02-11.06.01-.67.07-1.3-.32-1.53-.96-.52-1.14-1.11-2.25-1.67-3.37M19.17,36.82c.29-.07.53-.11.75-.17,1.35-.39,2.79-.39,4.14,0,1.52.42,3.04.82,4.56,1.23,1.61.43,3.23.86,4.86,1.3v-18.04c-.65,1.3-1.26,2.45-1.81,3.62-.21.55-.77.9-1.36.84-3.5-.02-6.99-.01-10.49-.01h-.66v11.22ZM20.11.08l-.14-.07c-.36.34-.74.65-1.07,1.02-2.39,2.68-2.21,6.78.4,9.25,1.2,1.05,1.85,2.6,1.77,4.2-.02.49,0,.99,0,1.49h1.92c0-.95-.01-1.87,0-2.79-.03-.52.36-.97.88-1,.08,0,.17,0,.25.02.5.1.83.56.78,1.06v2.72h1.92c0-.3.02-.58,0-.85-.18-1.91.55-3.8,1.98-5.08,2.55-2.62,2.49-6.81-.14-9.36-.15-.14-.3-.28-.46-.41-.14-.1-.28-.19-.42-.27,0,1.8,0,3.52,0,5.24.03.45-.19.87-.57,1.11-.89.58-1.76,1.17-2.64,1.76-.37.29-.9.29-1.27,0-.82-.56-1.65-1.13-2.49-1.66-.48-.27-.76-.8-.71-1.34.03-1.67.01-3.35.01-5.02M13.37,37.15h-5.68v15.27h5.68v-15.27ZM15.93,23.63c.08.02.17.04.25.05,4.5,0,8.99,0,13.48-.01.25-.04.47-.19.6-.42.83-1.61,1.63-3.24,2.44-4.87.06-.13.1-.27.17-.45-4.64,0-9.22,0-13.79.01-.17.01-.32.1-.42.24-.92,1.79-1.81,3.6-2.74,5.46M36.12,17.93c.01.08.03.16.06.24.86,1.73,1.72,3.47,2.61,5.19.16.2.4.31.66.32,4.35.02,8.71.01,13.06.01.16,0,.33-.02.55-.04-.94-1.87-1.83-3.67-2.75-5.46-.13-.15-.33-.24-.53-.24-1.3-.02-2.6-.01-3.9-.01h-9.76M5.68,39.08H0v11.44h5.68v-11.44ZM41.38,15.99c-2.26-.9-3.34-2.51-3.01-4.4.32-2.09,2.28-3.53,4.37-3.21,1.53.24,2.77,1.37,3.14,2.88.25,1,.09,2.06-.47,2.93-.57.91-1.49,1.55-2.53,1.78h4.41c-.12-.14-.25-.27-.38-.4-.51-.36-.65-1.06-.33-1.6.18-.57.75-.93,1.34-.85.63.03,1.26,0,1.88,0v-1.92c-.7,0-1.38-.01-2.05,0-.54.03-1.02-.32-1.16-.84-.3-.47-.22-1.09.19-1.47.51-.47,1.01-.95,1.5-1.41l-1.39-1.42c-.49.5-.98.97-1.44,1.46-.39.43-1.03.51-1.52.2-.51-.15-.85-.65-.81-1.18.02-.67,0-1.34,0-2.01h-1.91c0,.7-.01,1.36,0,2.02.04.54-.31,1.02-.82,1.17-.49.32-1.13.23-1.51-.21-.45-.5-.93-.98-1.41-1.47l-1.4,1.4c.49.48.96.96,1.45,1.42.42.36.52.98.23,1.46-.14.54-.64.91-1.19.88-.67-.02-1.35,0-2.03,0v1.92c.72,0,1.4-.05,2.07.02.35.01.68.17.91.42.51.9.7,1.3-.15,2.05-.11.11-.21.24-.3.37h4.33ZM44.08,12.19c0-1.06-.84-1.92-1.9-1.93-1.06,0-1.92.84-1.93,1.9,0,1.06.84,1.92,1.9,1.93,0,0,0,0,.01,0,1.05,0,1.9-.85,1.92-1.9"/>
    </g>
  </g>
</svg>