<?xml version="1.0" encoding="UTF-8"?>
<svg id="Capa_1" data-name="Capa 1" xmlns="http://www.w3.org/2000/svg" viewBox="0 0 250 250">
  <g id="Grupo_181" data-name="Grupo 181">
    <path d="M134.5,58h-19c-1.9,0-3.4,1.5-3.4,3.4s1.5,3.4,3.4,3.4h19c1.9,0,3.4-1.5,3.4-3.4s-1.5-3.4-3.4-3.4Z"/>
    <path d="M129.8,95.9h-9.5c-1.9,0-3.4,1.5-3.4,3.4s1.5,3.4,3.4,3.4h9.5c1.9,0,3.4-1.5,3.4-3.4s-1.5-3.4-3.4-3.4Z"/>
    <path d="M134.5,133.8h-19c-1.9,0-3.4,1.5-3.4,3.4s1.5,3.4,3.4,3.4h19c1.9,0,3.4-1.5,3.4-3.4s-1.5-3.4-3.4-3.4Z"/>
    <path d="M134.5,190.6h-19c-1.9,0-3.4,1.5-3.4,3.4s1.5,3.4,3.4,3.4h19c1.9,0,3.4-1.5,3.4-3.4s-1.5-3.4-3.4-3.4Z"/>
    <path d="M189.8,113.1h.6c9.4-1.2,16-6.8,16-13.7s-6.6-12.5-16-13.6h-.6v-21.1c0-3.3-2.7-5.9-5.9-5.9h-21.2v-8.3c0-1.5-1.2-2.8-2.8-2.8h-40.3c-1.5,0-2.8,1.2-2.8,2.8s1.2,2.8,2.8,2.8h37.5v16.6h-64v-16.6h15.4c1.5,0,2.8-1.2,2.8-2.8s-1.2-2.8-2.8-2.8h-18.2c-1.5,0-2.8,1.2-2.8,2.8v22.1c0,1.5,1.2,2.8,2.8,2.8h31.8v11.8h-14.5c-1.5,0-2.8,1.2-2.8,2.8v19c0,1.5,1.2,2.8,2.8,2.8h14.5v11.8h-18c-1.4,0-2.8.5-3.9,1.5l-11,9.6h-23c-3.3,0-5.9,2.7-5.9,5.9v11.5h-.6c-9.4,1.2-16,6.8-16,13.7s6.6,12.5,16,13.6h.6v11.6c0,3.3,2.7,5.9,5.9,5.9h26.4l.2.4c1.3,3.5,4.7,6.5,9.9,8.8,7.1,2.9,14.6,4.3,22.3,4.2,7.7.1,15.3-1.3,22.4-4.2,6.7-3,10.4-7.3,10.4-12s-3.7-9-10.5-12.1c-6.1-2.5-12.5-3.9-19.1-4.1h-.6v-26.8h18.3c1.4,0,2.8-.5,3.9-1.5l11-9.6h23c3.3,0,5.9-2.7,5.9-5.9v-21.1l.1.1ZM110.4,106v-13.4h29.2v13.4h-29.2ZM49.2,165.7c0-4.5,6.3-8.3,13.8-8.3s13.8,3.8,13.8,8.3-6.3,8.3-13.8,8.3-13.8-3.8-13.8-8.3ZM152.3,194.1c0,5-11.2,10.7-27.3,10.7s-27.3-5.6-27.3-10.7,2.6-5,7.2-7h0c.7-.3,1.2-.8,1.5-1.5s.3-1.4,0-2.1c-.3-.7-.8-1.2-1.5-1.5s-1.4-.2-2.1,0c-5.2,2.3-8.7,5.4-10,8.9l-.2.4h-26.8v-11.9h.6c9.4-1.2,16-6.8,16-13.7s-6.6-12.5-16-13.6h-.6v-12h23.4l11,9.6c1.1.9,2.5,1.5,3.9,1.5h18v26.8h-.6c-2.5.1-5,.4-7.4.8-.7.1-1.4.5-1.8,1.1s-.6,1.3-.5,2.1c.1.7.5,1.4,1.1,1.8.6.4,1.3.6,2.1.5,3.3-.5,6.7-.8,10-.8,16.2,0,27.3,5.6,27.3,10.7v-.1ZM146.1,145.6h-42.2l-9.5-8.3,9.5-8.3h42.2l9.5,8.3-9.5,8.3ZM186.42,107.65c-3.9,0-7.12-1.05-10.22-3.25-.6-.5-1.3-.7-2.1-.6-.7,0-1.4.5-1.8,1.1-.9,1.2-.7,3,.5,3.9,3.2,2.3,6.9,3.7,10.9,4.2h.6v21.5h-23.4l-11-9.6c-1.1-.9-2.5-1.5-3.9-1.5h-18.3v-11.8h14.8c1.5,0,2.8-1.2,2.8-2.8v-19c0-1.5-1.2-2.8-2.8-2.8h-14.8v-11.8h32.2c1.5,0,2.8-1.3,2.8-2.8v-8.3h21.6v21.5h-.6c-7.5,1-13.5,5-15.4,10.2-.5,1.4.2,3,1.7,3.6.7.2,1.5.2,2.1-.1.7-.3,1.2-.9,1.4-1.6,1.4-3.8,7.2-6.6,13.5-6.6s13.8,3.8,13.8,8.3-6.3,8.3-13.8,8.3l-.58-.05Z"/>
    <path d="M191.7,95.9h-9.5c-1.9,0-3.4,1.5-3.4,3.4s1.5,3.4,3.4,3.4h9.5c1.9,0,3.4-1.5,3.4-3.4s-1.5-3.4-3.4-3.4Z"/>
    <path d="M71.2,165.7c0-1.9-1.5-3.4-3.4-3.4h-9.5c-1.9,0-3.4,1.5-3.4,3.4s1.5,3.4,3.4,3.4h9.5c1.9,0,3.4-1.5,3.4-3.4Z"/>
    <path id="Trazado_274" data-name="Trazado 274" d="M74.6,125.9h2.5v2.5c0,1.3,1.1,2.4,2.4,2.4s2.4-1.1,2.4-2.4v-2.5h2.5c1.3,0,2.4-1.1,2.4-2.4s-1.1-2.4-2.4-2.4h-2.5v-2.5c0-1.3-1.1-2.4-2.4-2.4s-2.4,1.1-2.4,2.4v2.5h-2.5c-1.3,0-2.4,1.1-2.4,2.4s1.1,2.4,2.4,2.4"/>
    <path d="M161.1,123.5c0,1.9,1.5,3.4,3.4,3.4h9.8c1.9,0,3.4-1.5,3.4-3.4s-1.5-3.4-3.4-3.4h-9.8c-1.9,0-3.4,1.5-3.4,3.4Z"/>
  </g>
</svg>