<?xml version="1.0" encoding="UTF-8"?>
<svg id="Capa_2" data-name="Capa 2" xmlns="http://www.w3.org/2000/svg" viewBox="0 0 56.96 55.85">
  <defs>
    <style>
      .cls-1 {
        fill: #d4ab6b;
      }
    </style>
  </defs>
  <g id="Capa_1-2" data-name="Capa 1">
    <g id="Grupo_137" data-name="Grupo 137">
      <path id="Trazado_159" data-name="Trazado 159" class="cls-1" d="M0,21.43C0,23.57,0,25.71.02,27.84c0,.14.21.35.37.42,1.08.44,2.16.86,3.26,1.26.3.09.53.34.59.65.49,1.88,1.23,3.68,2.2,5.35.12.25.13.54.04.79-.44,1.08-.92,2.14-1.41,3.2-.15.24-.09.55.13.72,1.39,1.37,2.78,2.76,4.15,4.15.16.2.45.25.66.11,1.08-.5,2.15-.99,3.25-1.44.24-.09.51-.07.74.04,1.7.97,3.51,1.72,5.4,2.25.26.09.47.29.59.54.42.94.79,1.9,1.1,2.87.08.53.58.89,1.11.81.02,0,.05,0,.07-.01,1.08-.06,2.16-.02,3.27-.02,0-1.75,0-3.4,0-5.06,0-.14-.04-.27-.12-.38-.93-1.08-1.37-2.49-1.22-3.91.03-.37-.12-.47-.47-.5-.55-.03-1.1-.09-1.65-.19-8.13-1.48-13.53-9.27-12.05-17.4,1.48-8.13,9.27-13.53,17.4-12.05,7.67,1.39,12.98,8.44,12.22,16.2-.03.39-.08.77-.12,1.2h5.62c.84-.05,1.67.21,2.33.73.43.41,1.08.47,1.58.15.31-.14.47-.26.46-.63-.02-1.94-.02-3.88,0-5.81.04-.3-.16-.57-.46-.63-1.09-.4-2.18-.82-3.26-1.27-.22-.1-.39-.28-.47-.51-.52-1.91-1.28-3.74-2.26-5.46-.11-.23-.12-.5-.03-.74.44-1.08.92-2.14,1.41-3.2.16-.25.1-.59-.14-.77-1.38-1.35-2.76-2.72-4.11-4.1-.17-.22-.48-.28-.71-.12-1.06.49-2.12.97-3.2,1.41-.26.09-.54.08-.79-.03-1.7-.96-3.52-1.72-5.4-2.24-.24-.08-.44-.26-.56-.49-.44-1.05-.85-2.13-1.24-3.2-.06-.32-.35-.53-.67-.5-1.92.02-3.84.02-5.75,0-.32-.04-.61.17-.67.49-.38,1.06-.78,2.11-1.22,3.15-.13.27-.36.47-.63.57-1.86.53-3.66,1.27-5.34,2.23-.25.12-.54.13-.79.03-1.08-.44-2.14-.92-3.2-1.41-.23-.15-.55-.1-.72.13-1.37,1.4-2.77,2.77-4.13,4.17-.14.18-.18.42-.11.64.45,1.1.96,2.16,1.41,3.26.09.24.07.51-.04.74-.97,1.7-1.73,3.52-2.24,5.41-.09.26-.29.47-.54.59-1.2.5-2.42.96-3.66,1.44M27.47,45.95s-.02.21-.02.38v6.94c-.15,1.26.75,2.41,2.01,2.56.18.02.37.02.56,0,7.67,0,15.33,0,23,0,1.24.17,2.39-.7,2.56-1.94.03-.2.03-.41,0-.61,0-2.31,0-4.62,0-6.94,0-.17-.02-.34-.03-.57-.36.16-.66.3-.97.42-2.59.93-5.29,1.48-8.03,1.64-.29,0-.55.18-.63.46-.98,2.42-3.73,3.59-6.15,2.61-1.2-.48-2.15-1.44-2.62-2.64-.08-.26-.33-.44-.6-.44-1.34-.11-2.67-.3-3.99-.54-1.7-.37-3.37-.89-5.07-1.34M51.48,34.18v3.38c.19,1.87-1.18,3.53-3.05,3.72-.22.02-.45.02-.68,0-4.17,0-8.34,0-12.51,0-1.86.18-3.51-1.17-3.69-3.03-.02-.22-.02-.43,0-.65v-3.41c-1.54,0-3.02-.03-4.5.01-.6.01-.97.52-.97,1.2,0,1.82,0,3.64,0,5.46-.02.74.27,1.46.8,1.98.49.54,1.09.97,1.75,1.29,1.41.54,2.86.99,4.34,1.33,1.24.28,2.52.36,3.77.53.88-2.87,2.4-4.2,4.75-4.21,2.37,0,3.89,1.31,4.78,4.14.09.01.18.02.28.01,1.5-.22,3.02-.39,4.51-.66,1.61-.24,3.14-.86,4.46-1.81.81-.53,1.33-1.4,1.41-2.37.05-1.94.03-3.88.01-5.81.02-.59-.45-1.08-1.04-1.09-.02,0-.04,0-.06,0-1.42-.02-2.85,0-4.36,0M22.51,25.67c-.91-.92-1.73-1.75-2.55-2.57-.95-1.11-2.62-1.25-3.73-.3-1.11.95-1.25,2.62-.3,3.73.09.11.19.2.29.29,1.28,1.29,2.56,2.58,3.86,3.85.32.32.68.6,1.07.83,1.06.73,2.5.54,3.34-.44,2.97-2.96,5.93-5.92,8.88-8.89,1.07-1,1.12-2.68.12-3.75-.02-.02-.05-.05-.07-.07-1.03-1.02-2.69-1.01-3.71.02-.02.02-.04.05-.07.07-1.98,1.96-3.95,3.93-5.91,5.91-.4.41-.78.83-1.24,1.32M49.56,34.22h-16.05c-.02.05-.03.1-.04.16,0,1.03,0,2.06,0,3.08,0,1.44.48,1.92,1.91,1.92h12.27c.22,0,.43,0,.65-.03.66-.03,1.2-.56,1.25-1.22.06-1.3.02-2.6.02-3.91M45.44,32.22h2.06c.26-1.3-.58-2.56-1.88-2.83-.1-.02-.2-.03-.3-.04-2.55-.05-5.09-.05-7.64,0-1.28.08-2.25,1.19-2.17,2.47,0,.14.03.28.07.42h2.06c-.21-.85.34-.78.86-.77,2.01,0,4.03.02,6.04,0,.58,0,.99.05.9.76M41.52,43.69c-1.55-.02-2.83,1.22-2.84,2.78,0,0,0,.01,0,.02-.03,1.57,1.22,2.87,2.79,2.89s2.87-1.22,2.89-2.79c.03-1.57-1.22-2.87-2.79-2.89-.02,0-.03,0-.05,0"/>
    </g>
  </g>
</svg>