<?xml version="1.0" encoding="UTF-8"?>
<svg id="Capa_2" data-name="Capa 2" xmlns="http://www.w3.org/2000/svg" viewBox="0 0 60.76 60.73">
  <defs>
    <style>
      .cls-1 {
        fill: #d4ac6b;
      }
    </style>
  </defs>
  <g id="Capa_1-2" data-name="Capa 1">
    <g id="Grupo_133-2" data-name="Grupo 133-2">
      <path id="Trazado_139" data-name="Trazado 139" class="cls-1" d="M44.91,47.08l2.75,3.6c2.2,2.88,4.38,5.76,6.6,8.62,1.21,1.59,3.47,1.89,5.06.68.73-.56,1.23-1.38,1.38-2.29.25-1.35-.32-2.72-1.45-3.5-3.73-2.86-7.46-5.71-11.2-8.56-.33-.25-.67-.5-.92-.7l-2.21,2.15"/>
      <path id="Trazado_140" data-name="Trazado 140" class="cls-1" d="M44.91,47.08l2.21-2.15c.26.19.59.44.92.7,3.73,2.85,7.47,5.71,11.2,8.56,1.13.78,1.7,2.15,1.45,3.5-.32,1.97-2.17,3.3-4.14,2.99-.91-.15-1.73-.64-2.29-1.38-2.22-2.86-4.4-5.75-6.6-8.62l-2.75-3.6"/>
      <path id="Trazado_141" data-name="Trazado 141" class="cls-1" d="M26.41,0C12.03-.2.21,11.29,0,25.67c-.21,14.38,11.28,26.2,25.66,26.41,14.38.21,26.2-11.28,26.41-25.66,0,0,0-.01,0-.02C52.26,12.03,40.78.22,26.41,0M28.47,10.72c.36.3.66.66.89,1.06,3.95,6.76,7.87,13.54,11.84,20.29.99,1.54.55,3.59-.99,4.59-.58.38-1.27.56-1.97.52-3.89-.1-7.79-.03-11.69-.03s-7.8-.07-11.69.03c-1.82.09-3.38-1.31-3.47-3.14-.03-.68.14-1.36.51-1.93,3.98-6.77,7.9-13.56,11.86-20.34.76-1.53,2.62-2.16,4.15-1.4.2.1.38.22.56.35M30.87,49.37c-12.9,2.65-25.51-5.65-28.16-18.55C.32,19.21,6.82,7.61,17.97,3.58c.75-.27,1.53-.48,2.31-.69.54-.21,1.15.07,1.36.61.02.04.03.08.04.12.17.56-.15,1.14-.71,1.31-.05.01-.09.02-.14.03-1.87.47-3.66,1.19-5.34,2.13-5.98,3.24-10.03,9.16-10.89,15.91-1.69,11.85,6.55,22.83,18.4,24.52,11.34,1.62,21.98-5.87,24.29-17.08.28-1.45.38-2.93.57-4.4-.09-10.53-7.67-19.5-18.03-21.35-1.17-.19-2.35-.26-3.53-.35-.82-.06-1.3-.43-1.31-1.08,0-.67.52-1.1,1.35-1.1,13.17.16,23.72,10.97,23.56,24.14-.14,11.2-8.04,20.79-19.01,23.06"/>
      <path id="Trazado_142" data-name="Trazado 142" class="cls-1" d="M27.62,22.51c0,1.2,0,2.41,0,3.61,0,.79-.39,1.23-1.04,1.25-.68.02-1.12-.44-1.12-1.24-.01-2.41-.01-4.82,0-7.23,0-.8.44-1.26,1.12-1.25.65.01,1.04.46,1.04,1.24.01,1.2,0,2.41,0,3.61"/>
      <path id="Trazado_143" data-name="Trazado 143" class="cls-1" d="M27.62,31.18c0,.19.01.38,0,.57,0,.59-.47,1.07-1.06,1.08-.58,0-1.05-.45-1.07-1.02-.04-.4-.04-.8,0-1.2.02-.59.52-1.06,1.11-1.04.59.02,1.06.52,1.04,1.11.01.17,0,.34,0,.51h0"/>
    </g>
  </g>
</svg>