<?xml version="1.0" encoding="UTF-8"?>
<svg id="Capa_1" xmlns="http://www.w3.org/2000/svg" width="1080" height="1080" xmlns:xlink="http://www.w3.org/1999/xlink" version="1.1" viewBox="0 0 1080 1080">
  <!-- Generator: Adobe Illustrator 29.5.1, SVG Export Plug-In . SVG Version: 2.1.0 Build 141)  -->
  <defs>
    <style>
      .st0 {
        fill: url(#Degradado_sin_nombre_4);
      }

      .st1 {
        fill: url(#Degradado_sin_nombre_3);
      }

      .st2 {
        fill: url(#Degradado_sin_nombre_2);
      }
    </style>
    <linearGradient id="Degradado_sin_nombre_4" data-name="Degradado sin nombre 4" x1="-4.7" y1="1070.6" x2="2.6" y2="1080.3" gradientTransform="translate(48.2 160749.6) scale(186.8 -148.4)" gradientUnits="userSpaceOnUse">
      <stop offset=".2" stop-color="#d5ae6b"/>
      <stop offset="1" stop-color="#8a5e1f"/>
    </linearGradient>
    <linearGradient id="Degradado_sin_nombre_2" data-name="Degradado sin nombre 2" x1="-2.7" y1="1071.9" x2="2.9" y2="1079.4" gradientTransform="translate(85.9 210272) scale(243.6 -194.3)" gradientUnits="userSpaceOnUse">
      <stop offset=".2" stop-color="#d5ae6b"/>
      <stop offset="1" stop-color="#8a5e1f"/>
    </linearGradient>
    <linearGradient id="Degradado_sin_nombre_3" data-name="Degradado sin nombre 3" x1="-6.5" y1="1070.8" x2="2.7" y2="1080.5" gradientTransform="translate(180.4 161322.1) scale(149.1 -149.1)" gradientUnits="userSpaceOnUse">
      <stop offset=".2" stop-color="#d5ae6b"/>
      <stop offset="1" stop-color="#8a5e1f"/>
    </linearGradient>
  </defs>
  <path id="Trazado_388" class="st0" d="M364.3,904.9L16.3,556.9l27.5-27.5c112.3-112.2,294.2-112.2,406.5,0l144.8,144.8-230.9,230.9h0l.2-.2ZM129.3,559.4l235,235,120.5-120.5-89.5-89.5c-71.2-71.1-182.9-81.6-266.1-25h.2Z"/>
  <path id="Trazado_389" class="st2" d="M540,1046.8c-21.7,0-42.5-8.6-57.8-24l-173.2-173.2,320.5-320.5c112.3-112.2,294.3-112.2,406.6,0l27.5,27.5-465.9,466c-15.3,15.4-36.1,24-57.8,24h0v.2ZM419.5,849.7l117.9,117.9c1.4,1.4,3.5,1.4,4.9,0l408.2-408.2c-83.2-56.5-194.8-46-266.1,25l-265.2,265.2s.3,0,.3,0Z"/>
  <path id="Trazado_390" class="st1" d="M540,494.9l-230.9-230.9,230.9-230.8,230.9,230.9-230.9,230.9h0v-.2ZM419.5,264l120.5,120.4,120.5-120.4-120.5-120.5-120.5,120.5Z"/>
</svg>