<?xml version="1.0" encoding="UTF-8"?>
<svg id="Capa_2" data-name="Capa 2" xmlns="http://www.w3.org/2000/svg" xmlns:xlink="http://www.w3.org/1999/xlink" viewBox="0 0 246.48 60.11">
  <defs>
    <style>
      .cls-1 {
        fill: url(#Degradado_sin_nombre_3);
      }

      .cls-1, .cls-2, .cls-3, .cls-4 {
        stroke-width: 0px;
      }

      .cls-2 {
        fill: url(#Degradado_sin_nombre_3-3);
      }

      .cls-3 {
        fill: url(#Degradado_sin_nombre_3-2);
      }

      .cls-4 {
        fill: #fff;
      }
    </style>
    <linearGradient id="Degradado_sin_nombre_3" data-name="Degradado sin nombre 3" x1="-15.86" y1="60.34" x2="64.63" y2="-25.18" gradientTransform="translate(0 59.77) scale(1 -1)" gradientUnits="userSpaceOnUse">
      <stop offset="0" stop-color="#d5ae6b"/>
      <stop offset="1" stop-color="#8a5e1f"/>
    </linearGradient>
    <linearGradient id="Degradado_sin_nombre_3-2" data-name="Degradado sin nombre 3" x1="-6.5" y1="69.15" x2="73.98" y2="-16.37" xlink:href="#Degradado_sin_nombre_3"/>
    <linearGradient id="Degradado_sin_nombre_3-3" data-name="Degradado sin nombre 3" x1="1.88" y1="77.03" x2="82.36" y2="-8.49" xlink:href="#Degradado_sin_nombre_3"/>
  </defs>
  <g id="Capa_2-2" data-name="Capa 2">
    <g id="Capa_1-2" data-name="Capa 1-2">
      <g>
        <g>
          <g>
            <path class="cls-4" d="m98.23,38.45V.61h17.78c2.56,0,4.79.43,6.7,1.3,1.91.87,3.41,2.08,4.49,3.65,1.08,1.57,1.62,3.38,1.62,5.43,0,1.69-.41,3.22-1.24,4.57-.83,1.35-2,2.5-3.51,3.43,1.87.79,3.36,1.94,4.46,3.43,1.1,1.5,1.65,3.18,1.65,5.05,0,2.2-.56,4.12-1.68,5.76-1.12,1.64-2.67,2.92-4.65,3.84-1.98.92-4.29,1.38-6.92,1.38,0,0-18.7,0-18.7,0Zm7.84-22.33h9.46c1.69,0,3.03-.41,4-1.24s1.46-1.93,1.46-3.3-.49-2.46-1.46-3.27c-.97-.81-2.31-1.22-4-1.22h-9.46v9.03Zm0,15.84h10.22c1.84,0,3.29-.44,4.35-1.32s1.59-2.06,1.59-3.54-.53-2.67-1.59-3.57-2.51-1.35-4.35-1.35h-10.22s0,9.78,0,9.78Z"/>
            <path class="cls-4" d="m153.49,39.05c-2.81,0-5.43-.5-7.87-1.49s-4.56-2.38-6.38-4.16c-1.82-1.78-3.24-3.86-4.27-6.22-1.03-2.36-1.54-4.91-1.54-7.65s.51-5.29,1.54-7.65,2.45-4.43,4.27-6.22c1.82-1.78,3.95-3.17,6.38-4.16,2.43-.99,5.05-1.49,7.87-1.49s5.38.5,7.81,1.49,4.56,2.38,6.38,4.16c1.82,1.78,3.23,3.86,4.24,6.22,1.01,2.36,1.51,4.91,1.51,7.65s-.5,5.29-1.51,7.65c-1.01,2.36-2.42,4.43-4.24,6.22-1.82,1.78-3.95,3.17-6.38,4.16s-5.04,1.49-7.81,1.49Zm0-7.19c1.69,0,3.26-.31,4.7-.95,1.44-.63,2.7-1.5,3.78-2.62s1.93-2.42,2.54-3.92.92-3.11.92-4.84-.31-3.43-.92-4.89c-.61-1.46-1.46-2.75-2.54-3.87-1.08-1.12-2.34-1.99-3.78-2.62s-2.99-.95-4.65-.95-3.32.32-4.78.95c-1.46.63-2.73,1.5-3.81,2.62s-1.93,2.41-2.54,3.87c-.61,1.46-.92,3.05-.92,4.78s.31,3.45.92,4.95,1.46,2.8,2.54,3.92c1.08,1.12,2.35,1.99,3.81,2.62,1.46.63,3.04.95,4.73.95Z"/>
            <path class="cls-4" d="m191.8,38.99c-3.03,0-6-.58-8.92-1.73-2.92-1.15-5.51-2.76-7.78-4.81l4.49-5.68c2.2,1.95,4.32,3.36,6.35,4.24,2.04.88,4.19,1.32,6.46,1.32,1.59,0,2.96-.19,4.11-.57s2.04-.93,2.68-1.65c.63-.72.95-1.57.95-2.54,0-1.3-.47-2.31-1.41-3.03-.94-.72-2.54-1.26-4.81-1.62l-7.51-1.3c-3.21-.58-5.66-1.72-7.35-3.43-1.69-1.71-2.54-3.94-2.54-6.68,0-2.34.61-4.37,1.84-6.08,1.22-1.71,2.95-3.03,5.16-3.95,2.22-.92,4.86-1.38,7.92-1.38,2.74,0,5.5.46,8.3,1.38,2.8.92,5.23,2.23,7.33,3.92l-4.22,5.78c-3.96-3.03-7.95-4.54-11.95-4.54-1.41,0-2.63.18-3.68.54-1.05.36-1.85.86-2.41,1.49s-.84,1.36-.84,2.19c0,1.23.42,2.14,1.27,2.76.85.61,2.22,1.1,4.13,1.46l7.14,1.14c3.78.61,6.62,1.81,8.51,3.59s2.84,4.14,2.84,7.05c0,2.45-.66,4.58-1.97,6.38-1.32,1.8-3.17,3.21-5.57,4.22-2.4,1.01-5.23,1.51-8.51,1.51v.02Z"/>
            <path class="cls-4" d="m230.69,38.99c-2.81,0-5.44-.5-7.89-1.49s-4.59-2.37-6.41-4.14-3.24-3.83-4.27-6.19-1.54-4.91-1.54-7.65.51-5.29,1.54-7.65,2.46-4.43,4.3-6.22c1.84-1.78,3.97-3.17,6.41-4.16,2.43-.99,5.05-1.49,7.87-1.49,2.09,0,4.11.29,6.05.86,1.95.58,3.76,1.39,5.43,2.43,1.68,1.05,3.11,2.31,4.3,3.78l-5.3,5.19c-1.33-1.69-2.9-2.96-4.7-3.81-1.8-.85-3.73-1.27-5.78-1.27-1.69,0-3.28.32-4.76.95s-2.76,1.5-3.84,2.59c-1.08,1.1-1.93,2.39-2.54,3.86-.61,1.48-.92,3.12-.92,4.92s.32,3.34.95,4.84c.63,1.5,1.5,2.79,2.59,3.89,1.1,1.1,2.4,1.96,3.89,2.57,1.5.61,3.14.92,4.95.92,1.98,0,3.84-.41,5.57-1.24,1.73-.83,3.24-2.02,4.54-3.57l5.08,5.08c-1.19,1.44-2.6,2.69-4.24,3.73-1.64,1.05-3.43,1.85-5.38,2.41-1.95.56-3.91.84-5.89.84v.02Z"/>
          </g>
          <g>
            <path class="cls-4" d="m98.87,58.12v-6.51h2.81c.43,0,.81.07,1.12.21s.56.34.74.6.26.56.26.91c0,.31-.08.59-.25.84s-.39.44-.67.57c.36.14.64.34.85.6s.31.57.31.93-.09.7-.27.98-.44.5-.78.65-.73.23-1.19.23h-2.93Zm.98-3.75h1.77c.37,0,.67-.09.89-.26s.33-.41.33-.71-.11-.53-.33-.71c-.22-.17-.52-.26-.89-.26h-1.77s0,1.94,0,1.94Zm0,2.92h1.88c.4,0,.73-.1.97-.29.24-.19.36-.45.36-.78s-.12-.58-.36-.78c-.24-.2-.56-.29-.97-.29h-1.88v2.14Z"/>
            <path class="cls-4" d="m106.69,58.21c-.35,0-.65-.06-.91-.18s-.47-.29-.61-.51c-.15-.22-.22-.47-.22-.75,0-.45.17-.8.52-1.05.34-.25.81-.38,1.4-.38.46,0,.89.08,1.28.25v-.49c0-.34-.1-.6-.29-.76s-.48-.25-.86-.25c-.22,0-.44.03-.67.1-.23.07-.49.17-.79.3l-.35-.7c.35-.17.69-.29,1-.37s.63-.12.94-.12c.61,0,1.09.15,1.43.44.34.29.51.71.51,1.25v3.14h-.92v-.41c-.21.17-.43.29-.67.37s-.5.12-.78.12h-.01Zm-.87-1.47c0,.24.1.42.3.57.2.14.46.21.77.21.25,0,.48-.04.69-.11s.4-.19.56-.34v-.8c-.17-.1-.36-.17-.56-.22s-.41-.07-.64-.07c-.35,0-.62.07-.82.21s-.3.33-.3.56h0Z"/>
            <path class="cls-4" d="m112.54,58.21c-.46,0-.88-.11-1.25-.33s-.67-.51-.88-.88c-.22-.37-.33-.78-.33-1.24s.11-.88.33-1.25.51-.66.88-.88.78-.33,1.24-.33c.35,0,.7.07,1.03.2s.62.33.86.58l-.58.64c-.18-.2-.38-.35-.6-.45-.22-.1-.46-.15-.7-.15-.29,0-.55.07-.79.21s-.42.34-.55.59-.2.52-.2.83.07.58.21.83.32.45.56.59.5.21.79.21c.24,0,.47-.05.68-.14.21-.1.41-.24.59-.42l.57.6c-.25.25-.54.44-.86.58-.33.14-.66.2-1.01.2h.01Z"/>
            <path class="cls-4" d="m115.3,58.12v-6.51l.93-.18v4.03l2.3-2.07h1.09l-2.45,2.21,2.58,2.52h-1.23l-2.29-2.23v2.23s-.93,0-.93,0Z"/>
            <path class="cls-4" d="m125.42,58.22c-.46,0-.9-.09-1.32-.26-.41-.17-.77-.41-1.08-.72-.31-.31-.55-.66-.72-1.07s-.26-.85-.26-1.32.08-.91.26-1.32c.17-.41.41-.76.72-1.07s.67-.55,1.08-.72c.41-.17.85-.26,1.32-.26s.92.09,1.33.26.77.41,1.08.72c.31.31.55.66.73,1.07s.26.85.26,1.32-.09.91-.26,1.32-.42.76-.73,1.07c-.31.31-.67.55-1.08.72-.41.17-.86.26-1.33.26Zm.02-.9c.33,0,.65-.06.94-.19.29-.12.54-.3.76-.52s.39-.48.51-.78.18-.62.18-.97-.06-.67-.19-.97-.29-.56-.51-.78-.47-.39-.76-.52c-.29-.12-.6-.19-.94-.19s-.65.06-.94.19c-.29.12-.55.3-.76.52s-.39.48-.51.78-.18.62-.18.97.06.67.18.97.29.56.51.78.47.39.77.52.61.19.94.19Z"/>
            <path class="cls-4" d="m130.7,58.12v-3.95h-1.1v-.78h1.1v-.71c0-.5.14-.88.41-1.14s.67-.4,1.19-.4c.13,0,.25,0,.37.02.12,0,.22.03.31.07v.81c-.11-.03-.21-.05-.3-.06-.09,0-.18-.02-.28-.02-.27,0-.47.06-.6.18s-.2.3-.2.56v.7h1.37v.78h-1.37v3.95h-.91.01Z"/>
            <path class="cls-4" d="m134.8,58.12v-3.95h-1.1v-.78h1.1v-.71c0-.5.14-.88.41-1.14s.67-.4,1.19-.4c.13,0,.25,0,.37.02.12,0,.22.03.31.07v.81c-.11-.03-.21-.05-.3-.06-.09,0-.18-.02-.28-.02-.27,0-.47.06-.6.18s-.2.3-.2.56v.7h1.37v.78h-1.37v3.95h-.91.01Z"/>
            <path class="cls-4" d="m138.43,52.61c-.15,0-.29-.06-.4-.17-.11-.11-.17-.25-.17-.41s.06-.29.17-.4.25-.17.4-.17c.16,0,.3.06.41.17.11.11.17.25.17.41s-.06.29-.17.4-.25.17-.41.17Zm-.46,5.51v-4.74h.93v4.74h-.93Z"/>
            <path class="cls-4" d="m142.37,58.21c-.46,0-.88-.11-1.25-.33s-.67-.51-.88-.88c-.22-.37-.33-.78-.33-1.24s.11-.88.33-1.25.51-.66.88-.88.78-.33,1.24-.33c.35,0,.7.07,1.03.2s.62.33.86.58l-.58.64c-.18-.2-.38-.35-.6-.45-.22-.1-.46-.15-.7-.15-.29,0-.55.07-.79.21s-.42.34-.55.59-.2.52-.2.83.07.58.21.83.32.45.56.59c.24.14.5.21.79.21.24,0,.47-.05.68-.14.21-.1.41-.24.59-.42l.57.6c-.25.25-.54.44-.86.58-.33.14-.66.2-1.01.2h0Z"/>
            <path class="cls-4" d="m147.27,58.21c-.47,0-.89-.11-1.26-.32-.38-.21-.67-.51-.9-.88-.22-.38-.33-.79-.33-1.25s.11-.87.32-1.24.5-.66.86-.88.76-.33,1.21-.33.82.11,1.17.33c.34.22.62.52.82.89.2.38.3.8.3,1.27v.25h-3.74c.04.27.14.5.28.7.15.2.33.36.56.48s.48.18.75.18c.24,0,.46-.04.67-.11.21-.07.39-.17.53-.3l.59.58c-.27.21-.56.37-.85.47-.29.1-.62.15-.97.15h-.01Zm-1.54-2.86h2.81c-.04-.24-.13-.46-.26-.65-.13-.19-.3-.34-.49-.45s-.41-.16-.64-.16-.45.05-.65.16-.36.26-.5.44c-.13.19-.22.4-.27.65h0Z"/>
            <path class="cls-4" d="m154.69,58.21c-.52,0-1.02-.1-1.51-.3-.48-.2-.91-.49-1.28-.87l.6-.69c.35.35.71.6,1.08.77s.76.25,1.17.25c.31,0,.58-.05.82-.14s.42-.22.55-.39c.13-.16.2-.35.2-.56,0-.29-.1-.52-.31-.67-.2-.16-.54-.27-1.01-.35l-1.08-.19c-.6-.1-1.05-.29-1.34-.57s-.44-.65-.44-1.12c0-.37.1-.7.3-.99s.48-.51.84-.66c.36-.16.78-.23,1.26-.23s.94.08,1.39.23c.46.15.87.37,1.23.65l-.54.75c-.7-.53-1.41-.8-2.13-.8-.29,0-.54.04-.75.12s-.38.19-.49.34c-.12.15-.17.32-.17.52,0,.25.09.45.27.6.18.14.47.25.88.32l1.06.17c.69.11,1.19.31,1.52.6s.48.69.48,1.2c0,.4-.11.75-.32,1.05s-.52.54-.91.7-.85.25-1.36.25h-.01Z"/>
            <path class="cls-4" d="m160.58,58.21c-.47,0-.89-.11-1.26-.32-.38-.21-.67-.51-.9-.88-.22-.38-.33-.79-.33-1.25s.11-.87.32-1.24.5-.66.86-.88.76-.33,1.21-.33.82.11,1.17.33c.34.22.62.52.82.89.2.38.3.8.3,1.27v.25h-3.74c.04.27.14.5.28.7.15.2.33.36.56.48s.48.18.75.18c.24,0,.46-.04.67-.11.21-.07.39-.17.53-.3l.59.58c-.27.21-.56.37-.85.47-.29.1-.62.15-.97.15h-.01Zm-1.54-2.86h2.81c-.04-.24-.13-.46-.26-.65-.13-.19-.3-.34-.49-.45s-.41-.16-.64-.16-.45.05-.65.16-.36.26-.5.44c-.13.19-.22.4-.27.65h0Z"/>
            <path class="cls-4" d="m163.8,58.12v-4.75h.93v.61c.15-.22.33-.4.55-.52s.47-.19.75-.19c.19,0,.35.02.47.07v.84c-.09-.04-.18-.06-.27-.08-.09-.02-.19-.02-.29-.02-.27,0-.51.07-.72.22s-.38.36-.5.64v3.17h-.93,0Z"/>
            <path class="cls-4" d="m169.21,58.12l-2.05-4.74h1.02l1.48,3.54,1.48-3.54h1l-2.05,4.74h-.88,0Z"/>
            <path class="cls-4" d="m173.39,52.61c-.15,0-.29-.06-.4-.17-.11-.11-.17-.25-.17-.41s.06-.29.17-.4.25-.17.4-.17c.16,0,.3.06.41.17.11.11.17.25.17.41s-.06.29-.17.4-.25.17-.41.17Zm-.46,5.51v-4.74h.93v4.74h-.93Z"/>
            <path class="cls-4" d="m177.34,58.21c-.46,0-.88-.11-1.25-.33s-.67-.51-.88-.88c-.22-.37-.33-.78-.33-1.24s.11-.88.33-1.25.51-.66.88-.88.78-.33,1.24-.33c.35,0,.7.07,1.03.2s.62.33.86.58l-.58.64c-.18-.2-.38-.35-.6-.45-.22-.1-.46-.15-.7-.15-.29,0-.55.07-.79.21s-.42.34-.55.59-.2.52-.2.83.07.58.21.83.32.45.56.59c.24.14.5.21.79.21.24,0,.47-.05.68-.14.21-.1.41-.24.59-.42l.57.6c-.25.25-.54.44-.86.58-.33.14-.66.2-1.01.2h0Z"/>
            <path class="cls-4" d="m182.23,58.21c-.47,0-.89-.11-1.26-.32-.38-.21-.67-.51-.9-.88-.22-.38-.33-.79-.33-1.25s.11-.87.32-1.24.5-.66.86-.88.76-.33,1.21-.33.82.11,1.17.33c.34.22.62.52.82.89.2.38.3.8.3,1.27v.25h-3.74c.04.27.14.5.28.7.15.2.33.36.56.48s.48.18.75.18c.24,0,.46-.04.67-.11.21-.07.39-.17.53-.3l.59.58c-.27.21-.56.37-.85.47-.29.1-.62.15-.97.15h-.01Zm-1.54-2.86h2.81c-.04-.24-.13-.46-.26-.65-.13-.19-.3-.34-.49-.45s-.41-.16-.64-.16-.45.05-.65.16-.36.26-.5.44c-.13.19-.22.4-.27.65h0Z"/>
            <path class="cls-4" d="m187.14,58.21c-.41,0-.79-.06-1.15-.18s-.67-.3-.93-.53l.5-.61c.25.2.5.35.76.45.26.1.52.15.79.15.33,0,.61-.06.82-.19.21-.13.32-.3.32-.51,0-.17-.06-.31-.19-.41-.12-.1-.32-.17-.58-.2l-.86-.12c-.48-.07-.83-.21-1.06-.44-.23-.22-.35-.52-.35-.89,0-.28.08-.53.23-.74.16-.22.37-.38.65-.5s.6-.18.97-.18.68.05,1,.14.62.25.91.46l-.46.61c-.27-.17-.52-.3-.76-.38-.24-.08-.49-.12-.75-.12-.29,0-.51.06-.69.18-.17.12-.26.28-.26.47,0,.18.06.31.19.4s.32.16.59.2l.87.13c.47.06.83.2,1.07.43.24.22.36.52.36.89,0,.28-.09.53-.27.76s-.41.4-.71.53c-.29.13-.63.2-1.01.2Z"/>
            <path class="cls-4" d="m193.77,58.22c-.44,0-.83-.08-1.16-.23-.33-.15-.59-.37-.78-.66s-.28-.61-.28-.97c0-.25.04-.49.13-.69.09-.21.23-.4.43-.59.2-.18.47-.37.81-.55-.21-.26-.36-.5-.44-.73s-.12-.46-.12-.71c0-.3.07-.58.22-.81.15-.24.34-.43.6-.56.25-.14.54-.2.86-.2.3,0,.58.06.81.19.24.12.43.29.57.51s.21.46.21.73c0,.3-.08.57-.24.8s-.41.46-.75.67l-.46.28c.22.24.47.49.73.76s.54.52.81.77c.14-.22.26-.47.35-.75.09-.28.17-.57.23-.88l.82.14c-.08.4-.19.77-.32,1.11s-.29.65-.47.93c.19.16.37.31.54.45s.35.28.52.41l-.56.65c-.16-.12-.33-.26-.51-.4s-.35-.28-.53-.43c-.27.25-.57.45-.92.58-.34.13-.71.2-1.1.2v-.02Zm.06-.76c.27,0,.51-.05.74-.14.23-.09.43-.23.61-.41-.33-.3-.65-.61-.95-.91-.31-.3-.59-.6-.84-.89-.24.12-.43.25-.57.38-.14.13-.24.26-.3.39s-.09.28-.09.44c0,.35.13.62.39.83s.59.31,1.01.31Zm-.14-3.33l.47-.27c.2-.12.35-.26.45-.4.1-.15.14-.31.14-.5,0-.21-.07-.39-.22-.53s-.32-.21-.53-.21c-.24,0-.43.08-.58.24-.15.16-.22.36-.22.62,0,.16.04.32.11.48s.19.35.37.57h.01Z"/>
            <path class="cls-4" d="m203.35,58.22c-.48,0-.93-.09-1.34-.26s-.78-.41-1.09-.72-.56-.66-.73-1.07-.26-.85-.26-1.32.08-.92.26-1.33c.17-.41.41-.76.73-1.07.31-.3.68-.54,1.09-.71.42-.17.86-.26,1.34-.26.34,0,.67.04,1,.13s.63.22.9.39c.28.17.52.37.73.61l-.66.66c-.24-.29-.54-.51-.88-.67-.35-.15-.71-.23-1.09-.23-.35,0-.67.06-.96.19-.29.12-.55.3-.77.52s-.39.48-.51.78-.18.62-.18.97.06.67.18.97c.12.3.29.56.51.78.22.22.48.4.78.52s.62.19.96.19c.38,0,.74-.08,1.08-.23.34-.15.63-.37.87-.64l.64.65c-.21.23-.46.43-.73.6-.28.17-.57.3-.89.39s-.65.14-.98.14v.02Z"/>
            <path class="cls-4" d="m209.08,58.21c-.46,0-.88-.11-1.25-.32-.38-.21-.67-.51-.89-.88-.22-.38-.33-.79-.33-1.25s.11-.88.33-1.25.51-.66.89-.88.8-.33,1.26-.33.88.11,1.25.33.67.52.89.88c.22.37.33.79.33,1.25s-.11.88-.33,1.25c-.22.38-.51.67-.89.88s-.79.32-1.25.32h0Zm0-.82c.29,0,.55-.07.79-.22.24-.15.42-.34.56-.59s.21-.53.21-.84-.07-.58-.21-.82-.32-.44-.56-.59c-.24-.15-.5-.22-.79-.22s-.55.07-.79.22c-.24.15-.43.35-.56.59s-.2.52-.2.82.07.59.2.84.32.45.56.59c.24.15.5.22.79.22Z"/>
            <path class="cls-4" d="m212.6,58.12v-4.74h.93v.48c.37-.38.84-.58,1.42-.58.37,0,.69.08.96.23.28.16.49.37.65.65.16.28.24.6.24.97v2.98h-.93v-2.82c0-.37-.11-.67-.32-.88s-.5-.32-.87-.32c-.25,0-.47.05-.67.16s-.36.26-.5.46v3.4h-.93.02Z"/>
            <path class="cls-4" d="m219.72,58.21c-.41,0-.79-.06-1.15-.18s-.67-.3-.93-.53l.5-.61c.25.2.5.35.76.45.26.1.52.15.79.15.33,0,.61-.06.82-.19.21-.13.32-.3.32-.51,0-.17-.06-.31-.19-.41-.12-.1-.32-.17-.58-.2l-.86-.12c-.48-.07-.83-.21-1.06-.44-.23-.22-.35-.52-.35-.89,0-.28.08-.53.23-.74.16-.22.37-.38.65-.5s.6-.18.97-.18.68.05,1,.14.62.25.91.46l-.46.61c-.27-.17-.52-.3-.76-.38-.24-.08-.49-.12-.75-.12-.29,0-.51.06-.69.18-.17.12-.26.28-.26.47,0,.18.06.31.19.4s.32.16.59.2l.87.13c.47.06.83.2,1.07.43.24.22.36.52.36.89,0,.28-.09.53-.27.76s-.41.4-.71.53c-.29.13-.63.2-1.01.2Z"/>
            <path class="cls-4" d="m224.44,58.21c-.37,0-.69-.08-.97-.23-.28-.15-.5-.37-.66-.66-.16-.28-.24-.6-.24-.96v-2.98h.93v2.82c0,.37.11.66.32.87s.5.33.86.33c.25,0,.47-.05.67-.16s.36-.26.49-.46v-3.4h.93v4.74h-.93v-.48c-.37.38-.84.58-1.41.58h.01Z"/>
            <path class="cls-4" d="m228.07,58.12v-6.51l.93-.18v6.69s-.93,0-.93,0Z"/>
            <path class="cls-4" d="m232.3,58.21c-.45,0-.8-.1-1.04-.32-.24-.21-.36-.52-.36-.94v-2.78h-1v-.78h1v-1.2l.92-.23v1.43h1.41v.78h-1.41v2.58c0,.24.05.4.16.51.11.1.29.15.54.15.13,0,.25,0,.35-.03s.21-.05.33-.09v.79c-.12.04-.27.08-.43.1-.16.02-.32.03-.46.03h-.01Z"/>
            <path class="cls-4" d="m234.54,52.61c-.15,0-.29-.06-.4-.17-.11-.11-.17-.25-.17-.41s.06-.29.17-.4.25-.17.4-.17c.16,0,.3.06.41.17.11.11.17.25.17.41s-.06.29-.17.4-.25.17-.41.17Zm-.46,5.51v-4.74h.93v4.74h-.93Z"/>
            <path class="cls-4" d="m236.3,58.12v-4.74h.93v.48c.37-.38.84-.58,1.42-.58.37,0,.69.08.96.23.28.16.49.37.65.65.16.28.24.6.24.97v2.98h-.93v-2.82c0-.37-.11-.67-.32-.88s-.5-.32-.87-.32c-.25,0-.47.05-.67.16s-.36.26-.5.46v3.4h-.93.02Z"/>
            <path class="cls-4" d="m244.06,60.11c-.34,0-.68-.04-1-.12-.33-.08-.63-.2-.89-.34l.36-.73c.27.14.53.24.78.3s.49.1.73.1c.42,0,.74-.09.95-.28.21-.19.32-.46.32-.84v-.54c-.41.33-.88.49-1.42.49-.44,0-.84-.11-1.2-.33s-.65-.51-.86-.88-.32-.78-.32-1.22.11-.86.33-1.23.51-.66.87-.87.77-.32,1.21-.32c.26,0,.51.04.75.12.24.08.46.2.67.36v-.4h.91v4.81c0,.62-.19,1.09-.56,1.42-.37.33-.91.49-1.62.49h-.01Zm-.06-2.75c.27,0,.51-.05.74-.15.23-.1.41-.24.56-.41v-2.14c-.14-.17-.33-.3-.56-.4-.23-.1-.48-.15-.74-.15-.3,0-.57.07-.8.21-.24.14-.43.33-.57.58s-.21.52-.21.83.07.58.21.82c.14.25.33.44.57.59s.51.22.8.22Z"/>
          </g>
        </g>
        <rect class="cls-4" x="77.99" y=".76" width="3.79" height="58.61"/>
        <g>
          <path class="cls-1" d="m20.6,51.62L0,31.02l1.63-1.63c3.21-3.21,7.49-4.98,12.03-4.98s8.82,1.77,12.03,4.98l8.57,8.57-13.67,13.67h.01ZM6.69,31.17l13.91,13.91,7.13-7.13-5.3-5.3c-2.34-2.34-5.45-3.63-8.77-3.63-2.53,0-4.94.75-6.98,2.15h.01Z"/>
          <path class="cls-3" d="m31,60.02c-1.29,0-2.5-.5-3.42-1.42l-10.25-10.25,18.97-18.97c6.63-6.64,17.43-6.64,24.07,0l1.63,1.63-27.58,27.58c-.91.91-2.12,1.42-3.42,1.42h0Zm-7.13-11.67l6.98,6.98c.08.08.21.08.29,0l24.16-24.16c-4.82-3.29-11.47-2.79-15.75,1.48l-15.7,15.7h.02Z"/>
          <path class="cls-2" d="m31,27.35l-13.67-13.67L31,.02l13.67,13.67-13.67,13.67h0Zm-7.13-13.67l7.13,7.13,7.13-7.13-7.13-7.13s-7.13,7.13-7.13,7.13Z"/>
        </g>
      </g>
    </g>
  </g>
</svg>